<?xml version="1.0" encoding="utf-8"?><svg viewBox="0 0 1522 944" xmlns="http://www.w3.org/2000/svg" xmlns:xlink="http://www.w3.org/1999/xlink"><style>:root>svg{display:none}:root>svg:target{display:block}</style><svg fill="none" viewBox="0 0 1522 944" id="bg-main-page" xmlns="http://www.w3.org/2000/svg"><g opacity=".3" stroke="#BAB4B1"><path d="M127.331 475.465h812.268m-.099 463.592V5.133M5.247 939.057C5.247 423.265 423.527 5.133 939.5 5.133" stroke-width="9.661"/><path d="M1516.92 582.348c0-318.786-258.52-577.215-577.421-577.215m220.591 933.922c197.07 0 356.83-159.702 356.83-356.706M939.5 718.545c0 121.783 98.76 220.51 220.59 220.51" stroke-width="9.661"/><path d="M939.501 718.547c0-75.221 60.999-136.197 136.239-136.197m84.35 84.312c0-46.563-37.76-84.312-84.35-84.312" stroke-width="9.661"/><path d="M1160.09 666.659c0 28.654-23.24 51.884-51.91 51.884m-32.43-32.425c0 17.909 14.52 32.427 32.43 32.427m-32.43-32.427c0-10.745 8.71-19.455 19.46-19.455" stroke-width="9.661"/><path d="M939.499 582.02h577.751m-409.07 104.097h-32.44m32.44-19.458v51.886m-32.44-51.885h84.35m-84.35 51.886V582.349m84.35 136.195H939.499m220.591-136.195v356.707" stroke-width="3.864"/></g></svg><svg fill="none" viewBox="0 0 22 22" id="call-icon" xmlns="http://www.w3.org/2000/svg"><path d="m6.528 1.553.662 3.18c.062.374.05.7-.034.978a1.396 1.396 0 0 1-.442.684l6.614 13.584c-2.36-1.127-4.558-2.707-6.592-4.74-2.018-2.035-3.59-4.228-4.715-6.58C.896 6.307.333 4.007.333 1.759c0-.4.134-.737.4-1.012.267-.276.6-.414 1-.414h3.298c.363 0 .679.114.95.343.27.228.452.52.547.877Zm0 0-.483.13a1.517 1.517 0 0 0-.003-.013m.486-.117-.49.102.004.015m7.501 17.857c2.305 1.099 4.536 1.64 6.697 1.64a.903.903 0 0 0 .666-.26.836.836 0 0 0 .26-.64V17.02a.96.96 0 0 0-.225-.634 1.098 1.098 0 0 0-.605-.376l-2.777-.567a1.743 1.743 0 0 0-.684.033 1.06 1.06 0 0 0-.498.32l-.005.005-.005.005-2.852 2.903-.266.271-.333-.184a26.418 26.418 0 0 1-2.995-1.922 23.452 23.452 0 0 1-2.553-2.207l-.003-.003a27.943 27.943 0 0 1-2.158-2.466 21.527 21.527 0 0 1-1.858-2.834l-.188-.341.285-.266 2.927-2.728.009-.009.01-.008a.896.896 0 0 0 .285-.445v-.002c.057-.184.072-.425.02-.74L6.043 1.67m7.501 17.857L7.09 14.885m6.453 4.642c-2.304-1.1-4.455-2.644-6.453-4.641m6.453 4.641L7.09 14.886M6.042 1.67a1.187 1.187 0 0 0-.385-.612.926.926 0 0 0-.626-.225H1.734a.836.836 0 0 0-.641.261.903.903 0 0 0-.26.666c0 2.161.541 4.387 1.64 6.683 1.098 2.296 2.636 4.444 4.617 6.443" fill="#0F0806" stroke="#0F0806"/></svg><svg fill="none" viewBox="0 0 48 48" id="facebook-icon" xmlns="http://www.w3.org/2000/svg"><path d="M38.04 9.95A19.86 19.86 0 0 0 4.14 24 19.87 19.87 0 0 0 24 43.87a19.96 19.96 0 0 0 7.6-1.5 20.38 20.38 0 0 0 6.44-4.32 19.87 19.87 0 0 0 0-28.1Zm-1.4 26.68A17.842 17.842 0 0 1 26 41.77V28.65h3.76a2 2 0 0 0 0-4H26v-5.48a2 2 0 0 1 2-2h2.4a2 2 0 0 0 0-4H27a5 5 0 0 0-5 5v6.48h-3.74a2 2 0 0 0 0 4H22v13.12a17.838 17.838 0 1 1 18.52-10.94 18.121 18.121 0 0 1-3.88 5.8Z" fill="#0F0806"/></svg><svg fill="none" viewBox="0 0 48 48" id="instagram-icon" xmlns="http://www.w3.org/2000/svg"><path d="M32 14a2 2 0 1 1 4 0 2 2 0 0 1-4 0Z" fill="#0F0806"/><path fill-rule="evenodd" clip-rule="evenodd" d="M24 14.5a9.5 9.5 0 1 0 0 19 9.5 9.5 0 0 0 0-19ZM17.5 24a6.5 6.5 0 1 1 13 0 6.5 6.5 0 0 1-13 0Z" fill="#0F0806"/><path fill-rule="evenodd" clip-rule="evenodd" d="M34.516 5.666a95.442 95.442 0 0 0-21.032 0c-4.024.45-7.274 3.62-7.746 7.664-.83 7.09-.83 14.25 0 21.34.472 4.044 3.72 7.214 7.746 7.664 6.99.774 14.043.774 21.032 0 4.024-.45 7.274-3.62 7.746-7.664.83-7.09.83-14.25 0-21.34-.472-4.044-3.72-7.214-7.746-7.664Zm-20.7 2.98a92.44 92.44 0 0 1 20.368 0c2.66.3 4.79 2.398 5.1 5.034a88.842 88.842 0 0 1 0 20.64 5.78 5.78 0 0 1-5.1 5.032c-6.768.75-13.6.75-20.368 0a5.78 5.78 0 0 1-5.1-5.032 88.842 88.842 0 0 1 0-20.64 5.78 5.78 0 0 1 5.1-5.034Z" fill="#0F0806"/></svg><svg version="1.0" viewBox="0 0 915 770" id="logo_no_bg" xmlns="http://www.w3.org/2000/svg"><path d="M89.978 293.236h472.921M562.841 563.15V19.398" style="fill:none;fill-opacity:1;fill-rule:nonzero;stroke:#000;stroke-linejoin:miter;stroke-dasharray:none;stroke-opacity:1;stroke-width:10px"/><path d="M18.898 563.15c0-300.306 243.532-543.752 543.943-543.752" style="opacity:1;fill:none;fill-opacity:1;fill-rule:nonzero;stroke:#000;stroke-linejoin:miter;stroke-dasharray:none;stroke-opacity:1;stroke-width:10px"/><path style="opacity:1;fill:none;fill-opacity:1;fill-rule:nonzero;stroke:#000;stroke-linejoin:miter;stroke-dasharray:none;stroke-opacity:1;stroke-width:10px" d="M562.841 19.398c0 185.605 150.516 336.068 336.186 336.068" transform="rotate(180 730.934 187.432)"/><path d="M691.309 355.43c0 114.74 92.982 207.756 207.682 207.756" style="opacity:1;fill:none;fill-opacity:1;fill-rule:nonzero;stroke:#000;stroke-linejoin:miter;stroke-miterlimit:4;stroke-dasharray:none;stroke-opacity:1;stroke-width:10px" transform="rotate(-90 795.15 459.308)"/><path style="opacity:1;fill:none;fill-opacity:1;fill-rule:nonzero;stroke:#000;stroke-linejoin:miter;stroke-miterlimit:4;stroke-dasharray:none;stroke-opacity:1;stroke-width:10px" d="M562.841 434.763c0 70.905 57.501 128.386 128.431 128.386"/><path d="M562.842 434.764c0-43.795 35.515-79.297 79.324-79.297" style="opacity:1;fill:none;fill-opacity:1;fill-rule:nonzero;stroke:#000;stroke-linejoin:miter;stroke-miterlimit:4;stroke-dasharray:none;stroke-opacity:1;stroke-width:10px"/><path style="opacity:1;fill:none;fill-opacity:1;fill-rule:nonzero;stroke:#000;stroke-linejoin:miter;stroke-miterlimit:4;stroke-dasharray:none;stroke-opacity:1;stroke-width:10px" d="M642.166 355.467c0 27.11 21.985 49.088 49.105 49.088" transform="rotate(180 666.719 380.011)"/><path d="M661.053 434.762c0-16.683 13.53-30.208 30.219-30.208" style="opacity:1;fill:none;fill-opacity:1;fill-rule:nonzero;stroke:#000;stroke-linejoin:miter;stroke-miterlimit:4;stroke-dasharray:none;stroke-opacity:1;stroke-width:10px" transform="rotate(180 676.162 419.658)"/><path style="opacity:1;fill:none;fill-opacity:1;fill-rule:nonzero;stroke:#000;stroke-linejoin:miter;stroke-miterlimit:4;stroke-dasharray:none;stroke-opacity:1;stroke-width:10px" d="M642.166 415.883c0 10.427 8.456 18.88 18.887 18.88m-18.886-18.88c0-6.256 5.073-11.327 11.331-11.327"/><path d="M562.841 355.275h336.378" style="fill:none;fill-opacity:1;fill-rule:nonzero;stroke:#000;stroke-linejoin:miter;stroke-dasharray:none;stroke-opacity:1;stroke-width:4px"/><path d="M661.053 415.883h-18.887m18.887-11.329v30.209m-18.887-30.208h49.106m-49.106 30.209v-79.297m49.106 79.296H562.841m128.431-79.296V563.15" style="fill:none;fill-opacity:1;fill-rule:nonzero;stroke:#000;stroke-linejoin:miter;stroke-miterlimit:4;stroke-dasharray:none;stroke-opacity:1;stroke-width:4px"/><path d="M70.56 719.563h13.936l-26.963-113H45.976l-27.12 113H32.63l6-24.9h26.08Zm-28.802-38.15 10.01-41.538 9.716 41.538Zm46.818-74.85h-1v113h13.25v-38.1h11.3c4.849-.019 11.976-1.129 17.736-4.662 5.451-3.868 10.236-11.351 10.564-22.557v-20.581c-.195-8.723-3.585-15.96-8.411-20.429-5.099-4.145-12.53-6.578-19.877-6.671Zm23.55 61.65h-11.3v-48.4h11.315c4.833-.058 8.469.802 10.971 3.291l.047.046.053.038c2.873 2.026 4.128 4.994 3.964 10.476l.001 20.612c.352 6.927-1.916 9.839-5.24 11.704-2.905 2.175-6.571 2.238-9.811 2.233Zm77.823-17.101.048-.038.04-.043c1.935-2.092 4.581-2.718 8.386-2.718 3.612 0 8.077.995 13.973 2.946l1.312.432 5.252 1.728 1.313.432v-13.909l-4.05-1.392c-6.376-2.161-12.906-3.487-17.8-3.487-6.397 0-12.889 2.238-17.385 6.009-4.191 4.073-7.284 10.801-7.465 18.819v36.322c.18 8.018 3.167 14.67 7.359 18.745 4.494 3.772 11.093 6.105 17.491 6.105 4.893 0 11.414-1.323 17.791-3.485l.682-.234 1.352-.464 1.35-.464.675-.232v-13.909l-7.877 2.592c-5.89 1.954-10.36 2.946-13.973 2.946-3.822 0-6.355-.529-8.277-2.618l-.038-.041-.049-.039c-2.3-1.794-3.398-4.275-3.236-8.857v-36.344c-.156-4.599.832-7.025 3.126-8.802Zm88.823 8.801c-.18-8.018-3.167-14.67-7.359-18.745-4.493-3.772-11.093-6.105-17.491-6.105-6.325 0-12.785 2.244-17.262 6.017-4.171 4.07-7.258 10.793-7.438 18.811v36.322c.18 8.018 3.164 14.666 7.335 18.737 4.475 3.775 11.038 6.113 17.365 6.113 6.395 0 12.89-2.238 17.385-6.01 4.193-4.074 7.284-10.8 7.465-18.818Zm-13.25 36.345c.163 4.582-.94 7.068-3.241 8.861l-.051.039-.039.043c-1.911 2.09-4.444 2.612-8.269 2.612-3.805 0-6.453-.626-8.386-2.718l-.04-.043-.048-.038c-2.294-1.777-3.282-4.203-3.126-8.802v-36.344c-.162-4.581.939-7.067 3.239-8.858l.05-.039.039-.042c1.917-2.089 4.45-2.616 8.272-2.616 3.805 0 6.455.629 8.389 2.72l.04.043.049.038c2.295 1.773 3.276 4.199 3.122 8.8Zm64.39-55.09c-4.494-3.772-11.093-6.105-17.492-6.105-3.569 0-8.442 1.214-12.927 2.766l1.327-.459v-.807h-13.1v83h13.1v-69.568l.747-.192c3.977-1.035 7.423-1.49 10.853-1.49 3.823 0 6.356.529 8.277 2.618l.038.041.05.039c2.299 1.792 3.398 4.275 3.235 8.857v59.695h13.25v-59.65c-.179-8.019-3.166-14.67-7.358-18.745Zm32.533 9.944.048-.038.04-.043c1.933-2.092 4.581-2.718 8.386-2.718 3.611 0 8.076.995 13.973 2.946l2.629.862 5.248 1.724v-13.903l-4.05-1.392c-6.376-2.161-12.906-3.487-17.8-3.487-6.395 0-12.89 2.238-17.385 6.01-4.193 4.074-7.284 10.8-7.465 18.818v36.322c.18 8.018 3.167 14.67 7.359 18.745 4.493 3.772 11.093 6.105 17.491 6.105 4.893 0 11.413-1.323 17.79-3.485l.682-.234 1.353-.464 1.35-.464.675-.232v-13.909l-7.877 2.592c-5.891 1.954-10.361 2.946-13.973 2.946-3.822 0-6.355-.528-8.272-2.616l-.039-.042-.05-.039c-2.302-1.792-3.401-4.277-3.239-8.858v-36.344c-.156-4.599.832-7.025 3.126-8.802Zm52.373 8.756c-.163-4.582.936-7.065 3.235-8.857l.05-.039.038-.041c1.921-2.089 4.455-2.618 8.277-2.618 3.805 0 6.454.628 8.39 2.72l.04.043.049.038c2.294 1.774 3.275 4.199 3.121 8.8v11.599h-23.2Zm31.425 57.012 1.35-.464.675-.232v-13.909l-7.877 2.592c-5.891 1.954-10.361 2.946-13.973 2.946-3.825 0-6.358-.522-8.269-2.612l-.039-.042-.05-.04c-2.301-1.794-3.406-4.28-3.242-8.861v-11.645h36.45v-24.7c-.18-8.018-3.167-14.67-7.359-18.745-4.494-3.772-11.093-6.105-17.491-6.105-6.326 0-12.786 2.244-17.262 6.016-4.171 4.071-7.258 10.794-7.438 18.812v36.322c.179 8.019 3.164 14.666 7.335 18.738 4.472 3.773 11.037 6.112 17.365 6.112 4.892 0 11.413-1.323 17.79-3.485l.682-.234Zm27.073-79.881v-.436h-13.1v119.3h13.1v-36.682c3.282 1.053 5.741 1.882 11.6 1.882 6.395 0 12.89-2.238 17.385-6.01 4.193-4.074 7.284-10.8 7.465-18.818v-36.322c-.18-8.018-3.167-14.67-7.359-18.745-4.493-3.772-11.093-6.105-17.491-6.105-4.646 0-8.183.831-11.6 1.936Zm11.6 11.314c3.805 0 6.453.626 8.386 2.718l.04.043.048.038c2.294 1.777 3.282 4.203 3.126 8.802v36.344c.162 4.583-.936 7.068-3.239 8.858l-.05.039-.039.043c-1.916 2.088-4.45 2.615-8.272 2.615-4.462 0-7.503-.52-11.6-1.588v-56.244c4.09-1.153 7.138-1.668 11.6-1.668Zm52.599-26.3h-13.25v14.55h-10.05v13.25h10.05v46.4c.194 8.049 3.329 14.727 7.742 18.803 4.684 3.748 10.289 5.615 15.969 5.99l1.074.059 2.109.11 3.156.165v-13.177l-5.552-.414c-3.658-.242-5.536-.535-7.662-2.661l-.039-.039-.049-.035c-2.495-1.807-3.688-4.232-3.498-8.748v-46.453h18.9v-13.25h-18.9Zm86.997 97.125v.425h13.25v-120.5h-13.25v37.96c-3.37-1.115-5.891-1.96-11.6-1.96-6.325 0-12.785 2.244-17.262 6.017-4.171 4.07-7.258 10.793-7.438 18.811v36.322c.18 8.018 3.164 14.666 7.335 18.737 4.475 3.775 11.038 6.113 17.365 6.113 4.563 0 8.115-.848 11.6-1.925Zm-11.6-70.825c4.463 0 7.509.514 11.6 1.668v56.242c-4.136 1.069-7.333 1.59-11.6 1.59-3.805 0-6.455-.629-8.389-2.72l-.04-.043-.049-.038c-2.294-1.774-3.276-4.199-3.122-8.8v-36.344c-.163-4.581.941-7.069 3.242-8.861l.051-.039.039-.043c1.911-2.09 4.443-2.612 8.268-2.612Zm46.898 11.555c-.163-4.581.941-7.068 3.242-8.861l.051-.039.039-.043c1.911-2.09 4.443-2.612 8.268-2.612 3.806 0 6.451.626 8.388 2.719l.04.042.048.037c2.293 1.779 3.281 4.205 3.124 8.803v11.599h-23.2Zm31.425 57.012 1.35-.464.675-.232v-13.909l-7.877 2.592c-5.89 1.954-10.36 2.946-13.973 2.946-3.825 0-6.357-.522-8.27-2.612l-.039-.043-.05-.039c-2.301-1.794-3.404-4.279-3.241-8.861v-11.645h36.45v-24.7c-.179-8.019-3.166-14.67-7.358-18.745-4.494-3.772-11.093-6.105-17.492-6.105-6.325 0-12.785 2.244-17.261 6.016-4.171 4.071-7.258 10.794-7.439 18.812v36.322c.181 8.019 3.166 14.667 7.337 18.737 4.473 3.777 11.036 6.113 17.363 6.113 4.893 0 11.414-1.323 17.791-3.485l.682-.234Zm47.111-11.89-.049.039-.04.044c-1.914 2.13-4.54 2.74-8.348 2.74-5.708 0-10.205-1.007-16.253-2.969l-5.232-1.692-1.308-.423-1.307-.422v13.896l4.086 1.374c6.5 2.163 13.019 3.486 20.014 3.486 6.383 0 12.882-2.205 17.397-6.022 4.174-4.102 7.453-10.949 7.453-19.278 0-9.618-4.166-16.081-8.751-19.504-4.886-3.094-11.072-4.332-15.587-4.73-3.173-.293-6.126-.467-8.284-2.256l-.045-.037-.056-.032c-2.523-1.447-3.727-3.518-3.727-8.841 0-4.885.866-7.418 3.164-9.228l.049-.039.04-.045c1.912-2.131 4.538-2.738 8.347-2.738 3.61 0 8.076.995 13.973 2.946l2.629.862 5.248 1.724v-13.903l-4.05-1.392c-6.376-2.161-12.906-3.487-17.8-3.487-6.312 0-12.777 2.208-17.273 6.027-4.152 4.1-7.427 10.945-7.427 19.273 0 9.607 4.116 16.069 8.665 19.494 4.847 3.096 11.008 4.343 15.527 4.74 3.173.293 6.121.466 8.278 2.255l.045.037.056.032c2.524 1.448 3.729 3.519 3.729 8.842 0 4.884-.868 7.417-3.163 9.227Zm25.061 14.573h13.25v-83h-13.25Zm0-87.15h13.25v-25.85h-13.25Zm54 109.32c-1.926 1.889-4.358 2.38-8 2.38-5.709 0-10.205-1.007-16.253-2.969l-5.232-1.692-1.308-.423-1.307-.422v14.102l4.193 1.325c6.452 2.023 12.913 3.329 19.907 3.329 6.395 0 12.89-2.238 17.385-6.01 4.193-4.074 7.284-10.8 7.465-18.818v-95.972h-13.25v.466c-3.494-1.123-7.047-1.966-11.6-1.966-6.325 0-12.785 2.244-17.262 6.017-4.171 4.07-7.258 10.793-7.438 18.811v36.322c.18 8.018 3.164 14.666 7.335 18.737 4.475 3.776 11.038 6.113 17.365 6.113 5.71 0 8.237-.859 11.6-1.921v13.37c.155 4.599-.832 7.025-3.126 8.802Zm-8-93.42c4.463 0 7.509.514 11.6 1.668v56.242c-4.136 1.069-7.333 1.59-11.6 1.59-3.805 0-6.453-.626-8.386-2.718l-.04-.043-.048-.038c-2.294-1.777-3.281-4.203-3.126-8.802v-36.344c-.163-4.581.94-7.068 3.24-8.861l.051-.039.039-.043c1.912-2.089 4.445-2.612 8.27-2.612Zm75.99-7.145c-4.494-3.772-11.093-6.105-17.492-6.105-3.569 0-8.442 1.214-12.927 2.766l1.327-.459v-.807h-13.1v83h13.1v-69.568l.747-.192c3.977-1.035 7.423-1.49 10.853-1.49 3.823 0 6.355.528 8.276 2.617l.038.041.049.039c2.299 1.794 3.401 4.277 3.237 8.858v59.695h13.25v-59.65c-.179-8.019-3.166-14.67-7.358-18.745Z" style="paint-order:fill;white-space:pre;stroke-width:4px;fill:#000"/></svg><svg fill="none" viewBox="0 0 24 25" id="menu_icon" xmlns="http://www.w3.org/2000/svg"><path stroke="#0F0806" d="M.5 1.429h23v23H.5z"/><path d="M4.5 18.199a.48.48 0 0 1-.356-.145.482.482 0 0 1-.144-.355c0-.142.048-.26.144-.356a.481.481 0 0 1 .356-.144h15a.49.49 0 0 1 .5.501c0 .142-.048.26-.144.356a.486.486 0 0 1-.356.143h-15Zm0-4.77a.481.481 0 0 1-.356-.144.484.484 0 0 1-.144-.356c0-.141.048-.26.144-.356a.485.485 0 0 1 .356-.143h15c.142 0 .26.048.356.144a.485.485 0 0 1 .144.357c0 .142-.048.26-.144.356a.483.483 0 0 1-.356.143l-15-.001Zm0-4.77a.488.488 0 0 1-.5-.5c0-.142.048-.26.144-.356A.483.483 0 0 1 4.5 7.66h15c.142 0 .26.048.356.144A.484.484 0 0 1 20 8.16a.485.485 0 0 1-.144.357.485.485 0 0 1-.356.143l-15-.001Z" fill="#0F0806"/></svg><svg fill="none" viewBox="0 0 48 48" id="pinterest-icon" xmlns="http://www.w3.org/2000/svg"><path fill-rule="evenodd" clip-rule="evenodd" d="M24 4.5C13.23 4.5 4.5 13.23 4.5 24S13.23 43.5 24 43.5 43.5 34.77 43.5 24 34.77 4.5 24 4.5ZM7.5 24a16.5 16.5 0 1 1 11.578 15.754 18.47 18.47 0 0 0 2-4.256l1.032-3.954a4.465 4.465 0 0 0 3.812 1.9c5.07 0 8.634-4.608 8.634-10.332 0-5.498-4.49-9.606-10.248-9.606-7.174 0-10.984 4.82-10.984 10.058 0 2.446 1.294 5.474 3.372 6.448.308.142.51 0 .558-.226.048-.226.332-1.364.462-1.888a.527.527 0 0 0-.118-.474 6.436 6.436 0 0 1-1.188-3.788 7.194 7.194 0 0 1 7.506-7.22 6.566 6.566 0 0 1 6.946 6.768c0 4.488-2.28 7.612-5.224 7.612a2.376 2.376 0 0 1-2.47-3.004c.168-.7.392-1.422.608-2.126.394-1.276.77-2.49.77-3.408a2.092 2.092 0 0 0-2.102-2.376c-1.664 0-3.006 1.734-3.006 4.038a5.98 5.98 0 0 0 .452 2.376l-1.96 8.312c-.24 1.57-.24 3.17 0 4.74a16.463 16.463 0 0 1-3.636-2.004 16.624 16.624 0 0 1-5.928-8.054A16.48 16.48 0 0 1 7.5 24Z" fill="#0F0806"/></svg></svg>