<?xml version="1.0" encoding="utf-8"?><svg viewBox="0 0 915 770" xmlns="http://www.w3.org/2000/svg" xmlns:xlink="http://www.w3.org/1999/xlink"><style>:root>svg{display:none}:root>svg:target{display:block}</style><svg version="1.0" xmlns:bx="https://boxy-svg.com" viewBox="0 0 915 770" id="logo" xmlns="http://www.w3.org/2000/svg"><path style="stroke-width:0;fill:#ce261d" bx:origin="0 0" d="M0 0h1440v900H0z"/><path d="M89.978 293.236h472.921M562.841 563.15V19.398" style="fill:none;fill-opacity:1;fill-rule:nonzero;stroke:#000;stroke-linejoin:miter;stroke-dasharray:none;stroke-opacity:1;stroke-width:10px"/><path d="M18.898 563.15c0-300.306 243.532-543.752 543.943-543.752" style="opacity:1;fill:none;fill-opacity:1;fill-rule:nonzero;stroke:#000;stroke-linejoin:miter;stroke-dasharray:none;stroke-opacity:1;stroke-width:10px"/><path style="opacity:1;fill:none;fill-opacity:1;fill-rule:nonzero;stroke:#000;stroke-linejoin:miter;stroke-dasharray:none;stroke-opacity:1;stroke-width:10px" d="M562.841 19.398c0 185.605 150.516 336.068 336.186 336.068" transform="rotate(180 730.934 187.432)"/><path d="M691.309 355.43c0 114.74 92.982 207.756 207.682 207.756" style="opacity:1;fill:none;fill-opacity:1;fill-rule:nonzero;stroke:#000;stroke-linejoin:miter;stroke-miterlimit:4;stroke-dasharray:none;stroke-opacity:1;stroke-width:10px" transform="rotate(-90 795.15 459.308)"/><path style="opacity:1;fill:none;fill-opacity:1;fill-rule:nonzero;stroke:#000;stroke-linejoin:miter;stroke-miterlimit:4;stroke-dasharray:none;stroke-opacity:1;stroke-width:10px" d="M562.841 434.763c0 70.905 57.501 128.386 128.431 128.386"/><path d="M562.842 434.764c0-43.795 35.515-79.297 79.324-79.297" style="opacity:1;fill:none;fill-opacity:1;fill-rule:nonzero;stroke:#000;stroke-linejoin:miter;stroke-miterlimit:4;stroke-dasharray:none;stroke-opacity:1;stroke-width:10px"/><path style="opacity:1;fill:none;fill-opacity:1;fill-rule:nonzero;stroke:#000;stroke-linejoin:miter;stroke-miterlimit:4;stroke-dasharray:none;stroke-opacity:1;stroke-width:10px" d="M642.166 355.467c0 27.11 21.985 49.088 49.105 49.088" transform="rotate(180 666.719 380.011)"/><path d="M661.053 434.762c0-16.683 13.53-30.208 30.219-30.208" style="opacity:1;fill:none;fill-opacity:1;fill-rule:nonzero;stroke:#000;stroke-linejoin:miter;stroke-miterlimit:4;stroke-dasharray:none;stroke-opacity:1;stroke-width:10px" transform="rotate(180 676.162 419.658)"/><path style="opacity:1;fill:none;fill-opacity:1;fill-rule:nonzero;stroke:#000;stroke-linejoin:miter;stroke-miterlimit:4;stroke-dasharray:none;stroke-opacity:1;stroke-width:10px" d="M642.166 415.883c0 10.427 8.456 18.88 18.887 18.88m-18.886-18.88c0-6.256 5.073-11.327 11.331-11.327"/><path d="M562.841 355.275h336.378" style="fill:none;fill-opacity:1;fill-rule:nonzero;stroke:#000;stroke-linejoin:miter;stroke-dasharray:none;stroke-opacity:1;stroke-width:4px"/><path d="M661.053 415.883h-18.887m18.887-11.329v30.209m-18.887-30.208h49.106m-49.106 30.209v-79.297m49.106 79.296H562.841m128.431-79.296V563.15" style="fill:none;fill-opacity:1;fill-rule:nonzero;stroke:#000;stroke-linejoin:miter;stroke-miterlimit:4;stroke-dasharray:none;stroke-opacity:1;stroke-width:4px"/><path d="M70.56 719.563h13.936l-26.963-113H45.976l-27.12 113H32.63l6-24.9h26.08Zm-28.802-38.15 10.01-41.538 9.716 41.538Zm46.818-74.85h-1v113h13.25v-38.1h11.3c4.849-.019 11.976-1.129 17.736-4.662 5.451-3.868 10.236-11.351 10.564-22.557v-20.581c-.195-8.723-3.585-15.96-8.411-20.429-5.099-4.145-12.53-6.578-19.877-6.671Zm23.55 61.65h-11.3v-48.4h11.315c4.833-.058 8.469.802 10.971 3.291l.047.046.053.038c2.873 2.026 4.128 4.994 3.964 10.476l.001 20.612c.352 6.927-1.916 9.839-5.24 11.704-2.905 2.175-6.571 2.238-9.811 2.233Zm77.823-17.101.048-.038.04-.043c1.935-2.092 4.581-2.718 8.386-2.718 3.612 0 8.077.995 13.973 2.946l1.312.432 5.252 1.728 1.313.432v-13.909l-4.05-1.392c-6.376-2.161-12.906-3.487-17.8-3.487-6.397 0-12.889 2.238-17.385 6.009-4.191 4.073-7.284 10.801-7.465 18.819v36.322c.18 8.018 3.167 14.67 7.359 18.745 4.494 3.772 11.093 6.105 17.491 6.105 4.893 0 11.414-1.323 17.791-3.485l.682-.234 1.352-.464 1.35-.464.675-.232v-13.909l-7.877 2.592c-5.89 1.954-10.36 2.946-13.973 2.946-3.822 0-6.355-.529-8.277-2.618l-.038-.041-.049-.039c-2.3-1.794-3.398-4.275-3.236-8.857v-36.344c-.156-4.599.832-7.025 3.126-8.802Zm88.823 8.801c-.18-8.018-3.167-14.67-7.359-18.745-4.493-3.772-11.093-6.105-17.491-6.105-6.325 0-12.785 2.244-17.262 6.017-4.171 4.07-7.258 10.793-7.438 18.811v36.322c.18 8.018 3.164 14.666 7.335 18.737 4.475 3.775 11.038 6.113 17.365 6.113 6.395 0 12.89-2.238 17.385-6.01 4.193-4.074 7.284-10.8 7.465-18.818Zm-13.25 36.345c.163 4.582-.94 7.068-3.241 8.861l-.051.039-.039.043c-1.911 2.09-4.444 2.612-8.269 2.612-3.805 0-6.453-.626-8.386-2.718l-.04-.043-.048-.038c-2.294-1.777-3.282-4.203-3.126-8.802v-36.344c-.162-4.581.939-7.067 3.239-8.858l.05-.039.039-.042c1.917-2.089 4.45-2.616 8.272-2.616 3.805 0 6.455.629 8.389 2.72l.04.043.049.038c2.295 1.773 3.276 4.199 3.122 8.8Zm64.39-55.09c-4.494-3.772-11.093-6.105-17.492-6.105-3.569 0-8.442 1.214-12.927 2.766l1.327-.459v-.807h-13.1v83h13.1v-69.568l.747-.192c3.977-1.035 7.423-1.49 10.853-1.49 3.823 0 6.356.529 8.277 2.618l.038.041.05.039c2.299 1.792 3.398 4.275 3.235 8.857v59.695h13.25v-59.65c-.179-8.019-3.166-14.67-7.358-18.745Zm32.533 9.944.048-.038.04-.043c1.933-2.092 4.581-2.718 8.386-2.718 3.611 0 8.076.995 13.973 2.946l2.629.862 5.248 1.724v-13.903l-4.05-1.392c-6.376-2.161-12.906-3.487-17.8-3.487-6.395 0-12.89 2.238-17.385 6.01-4.193 4.074-7.284 10.8-7.465 18.818v36.322c.18 8.018 3.167 14.67 7.359 18.745 4.493 3.772 11.093 6.105 17.491 6.105 4.893 0 11.413-1.323 17.79-3.485l.682-.234 1.353-.464 1.35-.464.675-.232v-13.909l-7.877 2.592c-5.891 1.954-10.361 2.946-13.973 2.946-3.822 0-6.355-.528-8.272-2.616l-.039-.042-.05-.039c-2.302-1.792-3.401-4.277-3.239-8.858v-36.344c-.156-4.599.832-7.025 3.126-8.802Zm52.373 8.756c-.163-4.582.936-7.065 3.235-8.857l.05-.039.038-.041c1.921-2.089 4.455-2.618 8.277-2.618 3.805 0 6.454.628 8.39 2.72l.04.043.049.038c2.294 1.774 3.275 4.199 3.121 8.8v11.599h-23.2Zm31.425 57.012 1.35-.464.675-.232v-13.909l-7.877 2.592c-5.891 1.954-10.361 2.946-13.973 2.946-3.825 0-6.358-.522-8.269-2.612l-.039-.042-.05-.04c-2.301-1.794-3.406-4.28-3.242-8.861v-11.645h36.45v-24.7c-.18-8.018-3.167-14.67-7.359-18.745-4.494-3.772-11.093-6.105-17.491-6.105-6.326 0-12.786 2.244-17.262 6.016-4.171 4.071-7.258 10.794-7.438 18.812v36.322c.179 8.019 3.164 14.666 7.335 18.738 4.472 3.773 11.037 6.112 17.365 6.112 4.892 0 11.413-1.323 17.79-3.485l.682-.234Zm27.073-79.881v-.436h-13.1v119.3h13.1v-36.682c3.282 1.053 5.741 1.882 11.6 1.882 6.395 0 12.89-2.238 17.385-6.01 4.193-4.074 7.284-10.8 7.465-18.818v-36.322c-.18-8.018-3.167-14.67-7.359-18.745-4.493-3.772-11.093-6.105-17.491-6.105-4.646 0-8.183.831-11.6 1.936Zm11.6 11.314c3.805 0 6.453.626 8.386 2.718l.04.043.048.038c2.294 1.777 3.282 4.203 3.126 8.802v36.344c.162 4.583-.936 7.068-3.239 8.858l-.05.039-.039.043c-1.916 2.088-4.45 2.615-8.272 2.615-4.462 0-7.503-.52-11.6-1.588v-56.244c4.09-1.153 7.138-1.668 11.6-1.668Zm52.599-26.3h-13.25v14.55h-10.05v13.25h10.05v46.4c.194 8.049 3.329 14.727 7.742 18.803 4.684 3.748 10.289 5.615 15.969 5.99l1.074.059 2.109.11 3.156.165v-13.177l-5.552-.414c-3.658-.242-5.536-.535-7.662-2.661l-.039-.039-.049-.035c-2.495-1.807-3.688-4.232-3.498-8.748v-46.453h18.9v-13.25h-18.9Zm86.997 97.125v.425h13.25v-120.5h-13.25v37.96c-3.37-1.115-5.891-1.96-11.6-1.96-6.325 0-12.785 2.244-17.262 6.017-4.171 4.07-7.258 10.793-7.438 18.811v36.322c.18 8.018 3.164 14.666 7.335 18.737 4.475 3.775 11.038 6.113 17.365 6.113 4.563 0 8.115-.848 11.6-1.925Zm-11.6-70.825c4.463 0 7.509.514 11.6 1.668v56.242c-4.136 1.069-7.333 1.59-11.6 1.59-3.805 0-6.455-.629-8.389-2.72l-.04-.043-.049-.038c-2.294-1.774-3.276-4.199-3.122-8.8v-36.344c-.163-4.581.941-7.069 3.242-8.861l.051-.039.039-.043c1.911-2.09 4.443-2.612 8.268-2.612Zm46.898 11.555c-.163-4.581.941-7.068 3.242-8.861l.051-.039.039-.043c1.911-2.09 4.443-2.612 8.268-2.612 3.806 0 6.451.626 8.388 2.719l.04.042.048.037c2.293 1.779 3.281 4.205 3.124 8.803v11.599h-23.2Zm31.425 57.012 1.35-.464.675-.232v-13.909l-7.877 2.592c-5.89 1.954-10.36 2.946-13.973 2.946-3.825 0-6.357-.522-8.27-2.612l-.039-.043-.05-.039c-2.301-1.794-3.404-4.279-3.241-8.861v-11.645h36.45v-24.7c-.179-8.019-3.166-14.67-7.358-18.745-4.494-3.772-11.093-6.105-17.492-6.105-6.325 0-12.785 2.244-17.261 6.016-4.171 4.071-7.258 10.794-7.439 18.812v36.322c.181 8.019 3.166 14.667 7.337 18.737 4.473 3.777 11.036 6.113 17.363 6.113 4.893 0 11.414-1.323 17.791-3.485l.682-.234Zm47.111-11.89-.049.039-.04.044c-1.914 2.13-4.54 2.74-8.348 2.74-5.708 0-10.205-1.007-16.253-2.969l-5.232-1.692-1.308-.423-1.307-.422v13.896l4.086 1.374c6.5 2.163 13.019 3.486 20.014 3.486 6.383 0 12.882-2.205 17.397-6.022 4.174-4.102 7.453-10.949 7.453-19.278 0-9.618-4.166-16.081-8.751-19.504-4.886-3.094-11.072-4.332-15.587-4.73-3.173-.293-6.126-.467-8.284-2.256l-.045-.037-.056-.032c-2.523-1.447-3.727-3.518-3.727-8.841 0-4.885.866-7.418 3.164-9.228l.049-.039.04-.045c1.912-2.131 4.538-2.738 8.347-2.738 3.61 0 8.076.995 13.973 2.946l2.629.862 5.248 1.724v-13.903l-4.05-1.392c-6.376-2.161-12.906-3.487-17.8-3.487-6.312 0-12.777 2.208-17.273 6.027-4.152 4.1-7.427 10.945-7.427 19.273 0 9.607 4.116 16.069 8.665 19.494 4.847 3.096 11.008 4.343 15.527 4.74 3.173.293 6.121.466 8.278 2.255l.045.037.056.032c2.524 1.448 3.729 3.519 3.729 8.842 0 4.884-.868 7.417-3.163 9.227Zm25.061 14.573h13.25v-83h-13.25Zm0-87.15h13.25v-25.85h-13.25Zm54 109.32c-1.926 1.889-4.358 2.38-8 2.38-5.709 0-10.205-1.007-16.253-2.969l-5.232-1.692-1.308-.423-1.307-.422v14.102l4.193 1.325c6.452 2.023 12.913 3.329 19.907 3.329 6.395 0 12.89-2.238 17.385-6.01 4.193-4.074 7.284-10.8 7.465-18.818v-95.972h-13.25v.466c-3.494-1.123-7.047-1.966-11.6-1.966-6.325 0-12.785 2.244-17.262 6.017-4.171 4.07-7.258 10.793-7.438 18.811v36.322c.18 8.018 3.164 14.666 7.335 18.737 4.475 3.776 11.038 6.113 17.365 6.113 5.71 0 8.237-.859 11.6-1.921v13.37c.155 4.599-.832 7.025-3.126 8.802Zm-8-93.42c4.463 0 7.509.514 11.6 1.668v56.242c-4.136 1.069-7.333 1.59-11.6 1.59-3.805 0-6.453-.626-8.386-2.718l-.04-.043-.048-.038c-2.294-1.777-3.281-4.203-3.126-8.802v-36.344c-.163-4.581.94-7.068 3.24-8.861l.051-.039.039-.043c1.912-2.089 4.445-2.612 8.27-2.612Zm75.99-7.145c-4.494-3.772-11.093-6.105-17.492-6.105-3.569 0-8.442 1.214-12.927 2.766l1.327-.459v-.807h-13.1v83h13.1v-69.568l.747-.192c3.977-1.035 7.423-1.49 10.853-1.49 3.823 0 6.355.528 8.276 2.617l.038.041.049.039c2.299 1.794 3.401 4.277 3.237 8.858v59.695h13.25v-59.65c-.179-8.019-3.166-14.67-7.358-18.745Z" style="paint-order:fill;white-space:pre;stroke-width:4px;fill:#000"/></svg><svg version="1.0" viewBox="0 0 915 770" id="logo_no_bg" xmlns="http://www.w3.org/2000/svg"><path d="M89.978 293.236h472.921M562.841 563.15V19.398" style="fill:none;fill-opacity:1;fill-rule:nonzero;stroke:#000;stroke-linejoin:miter;stroke-dasharray:none;stroke-opacity:1;stroke-width:10px"/><path d="M18.898 563.15c0-300.306 243.532-543.752 543.943-543.752" style="opacity:1;fill:none;fill-opacity:1;fill-rule:nonzero;stroke:#000;stroke-linejoin:miter;stroke-dasharray:none;stroke-opacity:1;stroke-width:10px"/><path style="opacity:1;fill:none;fill-opacity:1;fill-rule:nonzero;stroke:#000;stroke-linejoin:miter;stroke-dasharray:none;stroke-opacity:1;stroke-width:10px" d="M562.841 19.398c0 185.605 150.516 336.068 336.186 336.068" transform="rotate(180 730.934 187.432)"/><path d="M691.309 355.43c0 114.74 92.982 207.756 207.682 207.756" style="opacity:1;fill:none;fill-opacity:1;fill-rule:nonzero;stroke:#000;stroke-linejoin:miter;stroke-miterlimit:4;stroke-dasharray:none;stroke-opacity:1;stroke-width:10px" transform="rotate(-90 795.15 459.308)"/><path style="opacity:1;fill:none;fill-opacity:1;fill-rule:nonzero;stroke:#000;stroke-linejoin:miter;stroke-miterlimit:4;stroke-dasharray:none;stroke-opacity:1;stroke-width:10px" d="M562.841 434.763c0 70.905 57.501 128.386 128.431 128.386"/><path d="M562.842 434.764c0-43.795 35.515-79.297 79.324-79.297" style="opacity:1;fill:none;fill-opacity:1;fill-rule:nonzero;stroke:#000;stroke-linejoin:miter;stroke-miterlimit:4;stroke-dasharray:none;stroke-opacity:1;stroke-width:10px"/><path style="opacity:1;fill:none;fill-opacity:1;fill-rule:nonzero;stroke:#000;stroke-linejoin:miter;stroke-miterlimit:4;stroke-dasharray:none;stroke-opacity:1;stroke-width:10px" d="M642.166 355.467c0 27.11 21.985 49.088 49.105 49.088" transform="rotate(180 666.719 380.011)"/><path d="M661.053 434.762c0-16.683 13.53-30.208 30.219-30.208" style="opacity:1;fill:none;fill-opacity:1;fill-rule:nonzero;stroke:#000;stroke-linejoin:miter;stroke-miterlimit:4;stroke-dasharray:none;stroke-opacity:1;stroke-width:10px" transform="rotate(180 676.162 419.658)"/><path style="opacity:1;fill:none;fill-opacity:1;fill-rule:nonzero;stroke:#000;stroke-linejoin:miter;stroke-miterlimit:4;stroke-dasharray:none;stroke-opacity:1;stroke-width:10px" d="M642.166 415.883c0 10.427 8.456 18.88 18.887 18.88m-18.886-18.88c0-6.256 5.073-11.327 11.331-11.327"/><path d="M562.841 355.275h336.378" style="fill:none;fill-opacity:1;fill-rule:nonzero;stroke:#000;stroke-linejoin:miter;stroke-dasharray:none;stroke-opacity:1;stroke-width:4px"/><path d="M661.053 415.883h-18.887m18.887-11.329v30.209m-18.887-30.208h49.106m-49.106 30.209v-79.297m49.106 79.296H562.841m128.431-79.296V563.15" style="fill:none;fill-opacity:1;fill-rule:nonzero;stroke:#000;stroke-linejoin:miter;stroke-miterlimit:4;stroke-dasharray:none;stroke-opacity:1;stroke-width:4px"/><path d="M70.56 719.563h13.936l-26.963-113H45.976l-27.12 113H32.63l6-24.9h26.08Zm-28.802-38.15 10.01-41.538 9.716 41.538Zm46.818-74.85h-1v113h13.25v-38.1h11.3c4.849-.019 11.976-1.129 17.736-4.662 5.451-3.868 10.236-11.351 10.564-22.557v-20.581c-.195-8.723-3.585-15.96-8.411-20.429-5.099-4.145-12.53-6.578-19.877-6.671Zm23.55 61.65h-11.3v-48.4h11.315c4.833-.058 8.469.802 10.971 3.291l.047.046.053.038c2.873 2.026 4.128 4.994 3.964 10.476l.001 20.612c.352 6.927-1.916 9.839-5.24 11.704-2.905 2.175-6.571 2.238-9.811 2.233Zm77.823-17.101.048-.038.04-.043c1.935-2.092 4.581-2.718 8.386-2.718 3.612 0 8.077.995 13.973 2.946l1.312.432 5.252 1.728 1.313.432v-13.909l-4.05-1.392c-6.376-2.161-12.906-3.487-17.8-3.487-6.397 0-12.889 2.238-17.385 6.009-4.191 4.073-7.284 10.801-7.465 18.819v36.322c.18 8.018 3.167 14.67 7.359 18.745 4.494 3.772 11.093 6.105 17.491 6.105 4.893 0 11.414-1.323 17.791-3.485l.682-.234 1.352-.464 1.35-.464.675-.232v-13.909l-7.877 2.592c-5.89 1.954-10.36 2.946-13.973 2.946-3.822 0-6.355-.529-8.277-2.618l-.038-.041-.049-.039c-2.3-1.794-3.398-4.275-3.236-8.857v-36.344c-.156-4.599.832-7.025 3.126-8.802Zm88.823 8.801c-.18-8.018-3.167-14.67-7.359-18.745-4.493-3.772-11.093-6.105-17.491-6.105-6.325 0-12.785 2.244-17.262 6.017-4.171 4.07-7.258 10.793-7.438 18.811v36.322c.18 8.018 3.164 14.666 7.335 18.737 4.475 3.775 11.038 6.113 17.365 6.113 6.395 0 12.89-2.238 17.385-6.01 4.193-4.074 7.284-10.8 7.465-18.818Zm-13.25 36.345c.163 4.582-.94 7.068-3.241 8.861l-.051.039-.039.043c-1.911 2.09-4.444 2.612-8.269 2.612-3.805 0-6.453-.626-8.386-2.718l-.04-.043-.048-.038c-2.294-1.777-3.282-4.203-3.126-8.802v-36.344c-.162-4.581.939-7.067 3.239-8.858l.05-.039.039-.042c1.917-2.089 4.45-2.616 8.272-2.616 3.805 0 6.455.629 8.389 2.72l.04.043.049.038c2.295 1.773 3.276 4.199 3.122 8.8Zm64.39-55.09c-4.494-3.772-11.093-6.105-17.492-6.105-3.569 0-8.442 1.214-12.927 2.766l1.327-.459v-.807h-13.1v83h13.1v-69.568l.747-.192c3.977-1.035 7.423-1.49 10.853-1.49 3.823 0 6.356.529 8.277 2.618l.038.041.05.039c2.299 1.792 3.398 4.275 3.235 8.857v59.695h13.25v-59.65c-.179-8.019-3.166-14.67-7.358-18.745Zm32.533 9.944.048-.038.04-.043c1.933-2.092 4.581-2.718 8.386-2.718 3.611 0 8.076.995 13.973 2.946l2.629.862 5.248 1.724v-13.903l-4.05-1.392c-6.376-2.161-12.906-3.487-17.8-3.487-6.395 0-12.89 2.238-17.385 6.01-4.193 4.074-7.284 10.8-7.465 18.818v36.322c.18 8.018 3.167 14.67 7.359 18.745 4.493 3.772 11.093 6.105 17.491 6.105 4.893 0 11.413-1.323 17.79-3.485l.682-.234 1.353-.464 1.35-.464.675-.232v-13.909l-7.877 2.592c-5.891 1.954-10.361 2.946-13.973 2.946-3.822 0-6.355-.528-8.272-2.616l-.039-.042-.05-.039c-2.302-1.792-3.401-4.277-3.239-8.858v-36.344c-.156-4.599.832-7.025 3.126-8.802Zm52.373 8.756c-.163-4.582.936-7.065 3.235-8.857l.05-.039.038-.041c1.921-2.089 4.455-2.618 8.277-2.618 3.805 0 6.454.628 8.39 2.72l.04.043.049.038c2.294 1.774 3.275 4.199 3.121 8.8v11.599h-23.2Zm31.425 57.012 1.35-.464.675-.232v-13.909l-7.877 2.592c-5.891 1.954-10.361 2.946-13.973 2.946-3.825 0-6.358-.522-8.269-2.612l-.039-.042-.05-.04c-2.301-1.794-3.406-4.28-3.242-8.861v-11.645h36.45v-24.7c-.18-8.018-3.167-14.67-7.359-18.745-4.494-3.772-11.093-6.105-17.491-6.105-6.326 0-12.786 2.244-17.262 6.016-4.171 4.071-7.258 10.794-7.438 18.812v36.322c.179 8.019 3.164 14.666 7.335 18.738 4.472 3.773 11.037 6.112 17.365 6.112 4.892 0 11.413-1.323 17.79-3.485l.682-.234Zm27.073-79.881v-.436h-13.1v119.3h13.1v-36.682c3.282 1.053 5.741 1.882 11.6 1.882 6.395 0 12.89-2.238 17.385-6.01 4.193-4.074 7.284-10.8 7.465-18.818v-36.322c-.18-8.018-3.167-14.67-7.359-18.745-4.493-3.772-11.093-6.105-17.491-6.105-4.646 0-8.183.831-11.6 1.936Zm11.6 11.314c3.805 0 6.453.626 8.386 2.718l.04.043.048.038c2.294 1.777 3.282 4.203 3.126 8.802v36.344c.162 4.583-.936 7.068-3.239 8.858l-.05.039-.039.043c-1.916 2.088-4.45 2.615-8.272 2.615-4.462 0-7.503-.52-11.6-1.588v-56.244c4.09-1.153 7.138-1.668 11.6-1.668Zm52.599-26.3h-13.25v14.55h-10.05v13.25h10.05v46.4c.194 8.049 3.329 14.727 7.742 18.803 4.684 3.748 10.289 5.615 15.969 5.99l1.074.059 2.109.11 3.156.165v-13.177l-5.552-.414c-3.658-.242-5.536-.535-7.662-2.661l-.039-.039-.049-.035c-2.495-1.807-3.688-4.232-3.498-8.748v-46.453h18.9v-13.25h-18.9Zm86.997 97.125v.425h13.25v-120.5h-13.25v37.96c-3.37-1.115-5.891-1.96-11.6-1.96-6.325 0-12.785 2.244-17.262 6.017-4.171 4.07-7.258 10.793-7.438 18.811v36.322c.18 8.018 3.164 14.666 7.335 18.737 4.475 3.775 11.038 6.113 17.365 6.113 4.563 0 8.115-.848 11.6-1.925Zm-11.6-70.825c4.463 0 7.509.514 11.6 1.668v56.242c-4.136 1.069-7.333 1.59-11.6 1.59-3.805 0-6.455-.629-8.389-2.72l-.04-.043-.049-.038c-2.294-1.774-3.276-4.199-3.122-8.8v-36.344c-.163-4.581.941-7.069 3.242-8.861l.051-.039.039-.043c1.911-2.09 4.443-2.612 8.268-2.612Zm46.898 11.555c-.163-4.581.941-7.068 3.242-8.861l.051-.039.039-.043c1.911-2.09 4.443-2.612 8.268-2.612 3.806 0 6.451.626 8.388 2.719l.04.042.048.037c2.293 1.779 3.281 4.205 3.124 8.803v11.599h-23.2Zm31.425 57.012 1.35-.464.675-.232v-13.909l-7.877 2.592c-5.89 1.954-10.36 2.946-13.973 2.946-3.825 0-6.357-.522-8.27-2.612l-.039-.043-.05-.039c-2.301-1.794-3.404-4.279-3.241-8.861v-11.645h36.45v-24.7c-.179-8.019-3.166-14.67-7.358-18.745-4.494-3.772-11.093-6.105-17.492-6.105-6.325 0-12.785 2.244-17.261 6.016-4.171 4.071-7.258 10.794-7.439 18.812v36.322c.181 8.019 3.166 14.667 7.337 18.737 4.473 3.777 11.036 6.113 17.363 6.113 4.893 0 11.414-1.323 17.791-3.485l.682-.234Zm47.111-11.89-.049.039-.04.044c-1.914 2.13-4.54 2.74-8.348 2.74-5.708 0-10.205-1.007-16.253-2.969l-5.232-1.692-1.308-.423-1.307-.422v13.896l4.086 1.374c6.5 2.163 13.019 3.486 20.014 3.486 6.383 0 12.882-2.205 17.397-6.022 4.174-4.102 7.453-10.949 7.453-19.278 0-9.618-4.166-16.081-8.751-19.504-4.886-3.094-11.072-4.332-15.587-4.73-3.173-.293-6.126-.467-8.284-2.256l-.045-.037-.056-.032c-2.523-1.447-3.727-3.518-3.727-8.841 0-4.885.866-7.418 3.164-9.228l.049-.039.04-.045c1.912-2.131 4.538-2.738 8.347-2.738 3.61 0 8.076.995 13.973 2.946l2.629.862 5.248 1.724v-13.903l-4.05-1.392c-6.376-2.161-12.906-3.487-17.8-3.487-6.312 0-12.777 2.208-17.273 6.027-4.152 4.1-7.427 10.945-7.427 19.273 0 9.607 4.116 16.069 8.665 19.494 4.847 3.096 11.008 4.343 15.527 4.74 3.173.293 6.121.466 8.278 2.255l.045.037.056.032c2.524 1.448 3.729 3.519 3.729 8.842 0 4.884-.868 7.417-3.163 9.227Zm25.061 14.573h13.25v-83h-13.25Zm0-87.15h13.25v-25.85h-13.25Zm54 109.32c-1.926 1.889-4.358 2.38-8 2.38-5.709 0-10.205-1.007-16.253-2.969l-5.232-1.692-1.308-.423-1.307-.422v14.102l4.193 1.325c6.452 2.023 12.913 3.329 19.907 3.329 6.395 0 12.89-2.238 17.385-6.01 4.193-4.074 7.284-10.8 7.465-18.818v-95.972h-13.25v.466c-3.494-1.123-7.047-1.966-11.6-1.966-6.325 0-12.785 2.244-17.262 6.017-4.171 4.07-7.258 10.793-7.438 18.811v36.322c.18 8.018 3.164 14.666 7.335 18.737 4.475 3.776 11.038 6.113 17.365 6.113 5.71 0 8.237-.859 11.6-1.921v13.37c.155 4.599-.832 7.025-3.126 8.802Zm-8-93.42c4.463 0 7.509.514 11.6 1.668v56.242c-4.136 1.069-7.333 1.59-11.6 1.59-3.805 0-6.453-.626-8.386-2.718l-.04-.043-.048-.038c-2.294-1.777-3.281-4.203-3.126-8.802v-36.344c-.163-4.581.94-7.068 3.24-8.861l.051-.039.039-.043c1.912-2.089 4.445-2.612 8.27-2.612Zm75.99-7.145c-4.494-3.772-11.093-6.105-17.492-6.105-3.569 0-8.442 1.214-12.927 2.766l1.327-.459v-.807h-13.1v83h13.1v-69.568l.747-.192c3.977-1.035 7.423-1.49 10.853-1.49 3.823 0 6.355.528 8.276 2.617l.038.041.049.039c2.299 1.794 3.401 4.277 3.237 8.858v59.695h13.25v-59.65c-.179-8.019-3.166-14.67-7.358-18.745Z" style="paint-order:fill;white-space:pre;stroke-width:4px;fill:#000"/></svg><svg version="1.0" viewBox="0 0 915 590" id="logo_no_bg_no_letters" xmlns="http://www.w3.org/2000/svg"><path d="M89.978 293.236h472.921" style="fill:none;fill-opacity:1;fill-rule:nonzero;stroke:rgb(,0,0);stroke-linejoin:miter;stroke-dasharray:none;stroke-opacity:1;stroke-width:10px"/><path d="M562.841 563.15V19.398" style="fill:none;fill-opacity:1;fill-rule:nonzero;stroke:#000;stroke-linejoin:miter;stroke-dasharray:none;stroke-opacity:1;stroke-width:10px"/><path d="M18.898 563.15c0-300.306 243.532-543.752 543.943-543.752" style="opacity:1;fill:none;fill-opacity:1;fill-rule:nonzero;stroke:#000;stroke-linejoin:miter;stroke-dasharray:none;stroke-opacity:1;stroke-width:10px"/><path style="opacity:1;fill:none;fill-opacity:1;fill-rule:nonzero;stroke:#000;stroke-linejoin:miter;stroke-dasharray:none;stroke-opacity:1;stroke-width:10px" d="M562.841 19.398c0 185.605 150.516 336.068 336.186 336.068" transform="rotate(180 730.934 187.432)"/><path d="M691.309 355.43c0 114.74 92.982 207.756 207.682 207.756" style="opacity:1;fill:none;fill-opacity:1;fill-rule:nonzero;stroke:#000;stroke-linejoin:miter;stroke-miterlimit:4;stroke-dasharray:none;stroke-opacity:1;stroke-width:10px" transform="rotate(-90 795.15 459.308)"/><path style="opacity:1;fill:none;fill-opacity:1;fill-rule:nonzero;stroke:#000;stroke-linejoin:miter;stroke-miterlimit:4;stroke-dasharray:none;stroke-opacity:1;stroke-width:10px" d="M562.841 434.763c0 70.905 57.501 128.386 128.431 128.386"/><path d="M562.842 434.764c0-43.795 35.515-79.297 79.324-79.297" style="opacity:1;fill:none;fill-opacity:1;fill-rule:nonzero;stroke:#000;stroke-linejoin:miter;stroke-miterlimit:4;stroke-dasharray:none;stroke-opacity:1;stroke-width:10px"/><path style="opacity:1;fill:none;fill-opacity:1;fill-rule:nonzero;stroke:#000;stroke-linejoin:miter;stroke-miterlimit:4;stroke-dasharray:none;stroke-opacity:1;stroke-width:10px" d="M642.166 355.467c0 27.11 21.985 49.088 49.105 49.088" transform="rotate(180 666.719 380.011)"/><path d="M661.053 434.762c0-16.683 13.53-30.208 30.219-30.208" style="opacity:1;fill:none;fill-opacity:1;fill-rule:nonzero;stroke:#000;stroke-linejoin:miter;stroke-miterlimit:4;stroke-dasharray:none;stroke-opacity:1;stroke-width:10px" transform="rotate(180 676.162 419.658)"/><path style="opacity:1;fill:none;fill-opacity:1;fill-rule:nonzero;stroke:#000;stroke-linejoin:miter;stroke-miterlimit:4;stroke-dasharray:none;stroke-opacity:1;stroke-width:10px" d="M642.166 415.883c0 10.427 8.456 18.88 18.887 18.88m-18.886-18.88c0-6.256 5.073-11.327 11.331-11.327"/><path d="M562.841 355.275h336.378" style="fill:none;fill-opacity:1;fill-rule:nonzero;stroke:#000;stroke-linejoin:miter;stroke-dasharray:none;stroke-opacity:1;stroke-width:4px"/><path d="M661.053 415.883h-18.887m18.887-11.329v30.209m-18.887-30.208h49.106m-49.106 30.209v-79.297m49.106 79.296H562.841m128.431-79.296V563.15" style="fill:none;fill-opacity:1;fill-rule:nonzero;stroke:#000;stroke-linejoin:miter;stroke-miterlimit:4;stroke-dasharray:none;stroke-opacity:1;stroke-width:4px"/></svg><svg version="1" viewBox="370 580 183 200" id="logo_no_bg_only_letters" xmlns="http://www.w3.org/2000/svg"><path d="M70.6 719.6h13.9l-27-113H46l-27.1 113h13.7l6-24.9h26.1Zm-28.8-38.2 10-41.5 9.7 41.5Zm46.8-74.8h-1v113h13.2v-38.1h11.3c4.9-.1 12-1.2 17.8-4.7 5.4-3.9 10.2-11.3 10.5-22.6v-20.5c-.2-8.8-3.6-16-8.4-20.5-5.1-4.1-12.5-6.5-19.9-6.6Zm23.5 61.6h-11.3v-48.4h11.3c4.9 0 8.5.8 11 3.3h.1v.1c2.9 2 4.1 5 4 10.5v20.6c.3 6.9-1.9 9.8-5.3 11.7-2.9 2.2-6.5 2.2-9.8 2.2Zm77.8-17.1h.1v-.1c2-2.1 4.6-2.7 8.4-2.7 3.6 0 8.1 1 14 3l1.3.4 5.3 1.7 1.3.5v-14l-4.1-1.4c-6.4-2.1-12.9-3.4-17.8-3.4-6.4 0-12.9 2.2-17.4 6-4.2 4-7.2 10.8-7.4 18.8v36.3c.2 8 3.1 14.7 7.3 18.8 4.5 3.7 11.1 6.1 17.5 6.1 4.9 0 11.4-1.4 17.8-3.5l.7-.3 1.3-.4 1.4-.5.7-.2v-13.9l-7.9 2.6c-5.9 1.9-10.4 2.9-14 2.9-3.8 0-6.3-.5-8.3-2.6v-.1c-2.3-1.8-3.4-4.3-3.3-8.8v-36.4c-.1-4.6.9-7 3.1-8.8Zm88.9 8.8c-.2-8-3.2-14.7-7.4-18.7-4.5-3.8-11.1-6.1-17.5-6.1-6.3 0-12.8 2.2-17.2 6-4.2 4-7.3 10.8-7.5 18.8v36.3c.2 8 3.2 14.7 7.4 18.8 4.4 3.7 11 6.1 17.3 6.1 6.4 0 12.9-2.3 17.4-6 4.2-4.1 7.3-10.8 7.5-18.9Zm-13.3 36.4c.2 4.5-.9 7-3.2 8.8l-.1.1c-1.9 2.1-4.5 2.6-8.3 2.6-3.8 0-6.4-.6-8.4-2.7l-.1-.1c-2.2-1.8-3.2-4.2-3.1-8.8v-36.3c-.1-4.6 1-7.1 3.3-8.9l.1-.1c1.9-2.1 4.4-2.6 8.2-2.6 3.8 0 6.5.6 8.4 2.7l.1.1c2.3 1.8 3.3 4.2 3.1 8.8Zm64.4-55.1c-4.5-3.8-11.1-6.1-17.5-6.1-3.5 0-8.4 1.2-12.9 2.7l1.3-.4v-.8h-13.1v83h13.1V650c.2 0 .4-.1.8-.2 3.9-1 7.4-1.5 10.8-1.5 3.8 0 6.4.5 8.3 2.6v.1h.1c2.3 1.8 3.4 4.3 3.2 8.9v59.7h13.3v-59.7c-.2-8-3.2-14.7-7.4-18.7Zm32.5 9.9h.1v-.1c2-2.1 4.6-2.7 8.4-2.7 3.6 0 8.1 1 14 3l2.6.8 5.3 1.7v-13.9l-4.1-1.4c-6.4-2.1-12.9-3.4-17.8-3.4-6.4 0-12.9 2.2-17.4 6-4.2 4-7.2 10.8-7.4 18.8v36.3c.1 8 3.1 14.7 7.3 18.8 4.5 3.7 11.1 6.1 17.5 6.1 4.9 0 11.4-1.4 17.8-3.5l.7-.3 1.3-.4 1.4-.5.7-.2v-13.9l-7.9 2.6c-5.9 1.9-10.4 2.9-14 2.9-3.8 0-6.3-.5-8.3-2.6v-.1c-2.3-1.8-3.4-4.3-3.3-8.8v-36.4c-.1-4.6.9-7 3.1-8.8Zm52.4 8.8c-.1-4.6 1-7.1 3.3-8.9v-.1c2-2.1 4.5-2.6 8.3-2.6 3.8 0 6.5.6 8.4 2.7v.1h.1c2.3 1.8 3.3 4.2 3.1 8.8v11.6h-23.2Zm31.4 57 1.4-.5.7-.2v-13.9l-7.9 2.6c-5.9 1.9-10.4 2.9-14 2.9-3.8 0-6.3-.5-8.3-2.6v-.1c-2.3-1.8-3.4-4.3-3.3-8.8v-11.7h36.5v-24.7c-.2-8-3.2-14.7-7.4-18.7-4.5-3.8-11.1-6.1-17.5-6.1-6.3 0-12.8 2.2-17.2 6-4.2 4-7.3 10.8-7.5 18.8v36.3c.2 8 3.2 14.7 7.4 18.8 4.4 3.7 11 6.1 17.3 6.1 4.9 0 11.4-1.4 17.8-3.5l.7-.3Zm27.1-79.9v-.4h-13.1v119.3h13.1v-36.7c3.3 1 5.8 1.9 11.6 1.9 6.4 0 12.9-2.3 17.4-6 4.2-4.1 7.3-10.8 7.5-18.9v-36.3c-.2-8-3.2-14.7-7.4-18.7-4.5-3.8-11.1-6.1-17.5-6.1-4.6 0-8.2.8-11.6 1.9Zm11.6 11.3c3.8 0 6.5.6 8.4 2.7v.1h.1c2.3 1.8 3.3 4.2 3.1 8.8v36.4c.2 4.5-.9 7-3.2 8.8l-.1.1c-1.9 2.1-4.5 2.6-8.3 2.6-4.4 0-7.5-.5-11.6-1.6V650c4.1-1.2 7.2-1.7 11.6-1.7Zm52.6-26.3h-13.2v14.6h-10.1v13.2h10.1v46.4c.2 8.1 3.3 14.7 7.7 18.8 4.7 3.8 10.3 5.6 16 6l1 .1 2.2.1 3.1.1v-13.1l-5.5-.5c-3.7-.2-5.6-.5-7.7-2.6v-.1h-.1c-2.5-1.8-3.7-4.2-3.5-8.7v-46.5h18.9v-13.2h-18.9Zm87 97.1v.5h13.3V599.1h-13.3V637c-3.4-1.1-5.9-1.9-11.6-1.9-6.3 0-12.8 2.2-17.3 6-4.1 4-7.2 10.8-7.4 18.8v36.3c.2 8 3.2 14.7 7.3 18.8 4.5 3.7 11.1 6.1 17.4 6.1 4.6 0 8.1-.9 11.6-2Zm-11.6-70.8c4.5 0 7.5.5 11.6 1.7v56.2c-4.1 1.1-7.3 1.6-11.6 1.6-3.8 0-6.4-.6-8.4-2.7v-.1h-.1c-2.3-1.8-3.2-4.2-3.1-8.8v-36.3c-.2-4.6 1-7.1 3.3-8.9v-.1c2-2.1 4.5-2.6 8.3-2.6Zm46.9 11.6c-.2-4.6 1-7.1 3.3-8.9v-.1c2-2.1 4.5-2.6 8.3-2.6 3.8 0 6.5.6 8.4 2.7v.1h.1c2.3 1.8 3.3 4.2 3.1 8.8v11.6h-23.2Zm31.4 57 1.4-.5.7-.2v-13.9l-7.9 2.6c-5.9 1.9-10.4 2.9-14 2.9-3.8 0-6.3-.5-8.3-2.6v-.1c-2.3-1.8-3.5-4.3-3.3-8.8v-11.7h36.5v-24.7c-.2-8-3.2-14.7-7.4-18.7-4.5-3.8-11.1-6.1-17.5-6.1-6.3 0-12.8 2.2-17.3 6-4.1 4-7.2 10.8-7.4 18.8v36.3c.2 8 3.2 14.7 7.3 18.8 4.5 3.7 11.1 6.1 17.4 6.1 4.9 0 11.4-1.4 17.8-3.5l.7-.3Zm47.1-11.9v.1c-2 2.1-4.6 2.7-8.4 2.7-5.7 0-10.2-1-16.2-3l-5.3-1.6-1.3-.5-1.3-.4v13.9l4.1 1.4c6.5 2.1 13 3.5 20 3.5 6.4 0 12.9-2.2 17.4-6.1 4.2-4.1 7.5-10.9 7.5-19.2 0-9.7-4.2-16.1-8.8-19.5-4.9-3.1-11.1-4.4-15.6-4.8-3.2-.3-6.1-.4-8.3-2.2v-.1h-.1c-2.5-1.4-3.7-3.5-3.7-8.8 0-4.9.9-7.5 3.2-9.3h.1c1.9-2.2 4.5-2.8 8.3-2.8 3.6 0 8.1 1 14 3l2.6.8 5.3 1.7v-13.9l-4.1-1.4c-6.4-2.1-12.9-3.4-17.8-3.4-6.3 0-12.8 2.2-17.3 6-4.1 4.1-7.4 10.9-7.4 19.3 0 9.6 4.1 16 8.7 19.5 4.8 3.1 11 4.3 15.5 4.7 3.2.3 6.1.5 8.3 2.3h.1c2.5 1.5 3.7 3.5 3.7 8.9 0 4.8-.9 7.4-3.2 9.2Zm25.1 14.6h13.3v-83h-13.3Zm0-87.2h13.3v-25.8h-13.3Zm54 109.3c-1.9 1.9-4.4 2.4-8 2.4-5.7 0-10.2-1-16.2-3l-5.3-1.6-1.3-.5-1.3-.4v14.1l4.2 1.3c6.5 2.1 12.9 3.4 19.9 3.4 6.4 0 12.9-2.3 17.4-6 4.2-4.1 7.3-10.8 7.5-18.9v-95.9H821v.4c-3.5-1.1-7-1.9-11.6-1.9-6.3 0-12.8 2.2-17.3 6-4.1 4-7.2 10.8-7.4 18.8v36.3c.2 8 3.2 14.7 7.3 18.8 4.5 3.7 11.1 6.1 17.4 6.1 5.7 0 8.2-.9 11.6-2v13.4c.2 4.6-.8 7-3.1 8.8Zm-8-93.4c4.5 0 7.5.5 11.6 1.7v56.2c-4.1 1.1-7.3 1.6-11.6 1.6-3.8 0-6.4-.6-8.4-2.7l-.1-.1c-2.3-1.8-3.2-4.2-3.1-8.8v-36.3c-.2-4.6.9-7.1 3.2-8.9h.1v-.1c1.9-2.1 4.5-2.6 8.3-2.6Zm76-7.1c-4.5-3.8-11.1-6.1-17.5-6.1-3.6 0-8.4 1.2-12.9 2.7l1.3-.4v-.8h-13.1v83h13.1V650c.2 0 .4-.1.8-.2 3.9-1 7.4-1.5 10.8-1.5 3.8 0 6.4.5 8.3 2.6v.1h.1c2.3 1.8 3.4 4.3 3.2 8.9v59.7h13.3v-59.7c-.2-8-3.2-14.7-7.4-18.7Z" style="fill:#000;stroke-width:4px;paint-order:fill;white-space:pre"/></svg><svg version="1.0" viewBox="0 0 915 770" id="logo_no_bg_red_stroke" xmlns="http://www.w3.org/2000/svg"><path d="M89.978 293.236h472.921M562.841 563.15V19.398" style="fill:none;fill-opacity:1;fill-rule:nonzero;stroke:#ce261d;stroke-linejoin:miter;stroke-dasharray:none;stroke-opacity:1;stroke-width:10px"/><path d="M18.898 563.15c0-300.306 243.532-543.752 543.943-543.752" style="opacity:1;fill:none;fill-opacity:1;fill-rule:nonzero;stroke:#ce261d;stroke-linejoin:miter;stroke-dasharray:none;stroke-opacity:1;stroke-width:10px"/><path style="opacity:1;fill:none;fill-opacity:1;fill-rule:nonzero;stroke:#ce261d;stroke-linejoin:miter;stroke-dasharray:none;stroke-opacity:1;stroke-width:10px" d="M562.841 19.398c0 185.605 150.516 336.068 336.186 336.068" transform="rotate(180 730.934 187.432)"/><path d="M691.309 355.43c0 114.74 92.982 207.756 207.682 207.756" style="opacity:1;fill:none;fill-opacity:1;fill-rule:nonzero;stroke:#ce261d;stroke-linejoin:miter;stroke-miterlimit:4;stroke-dasharray:none;stroke-opacity:1;stroke-width:10px" transform="rotate(-90 795.15 459.308)"/><path style="opacity:1;fill:none;fill-opacity:1;fill-rule:nonzero;stroke:#ce261d;stroke-linejoin:miter;stroke-miterlimit:4;stroke-dasharray:none;stroke-opacity:1;stroke-width:10px" d="M562.841 434.763c0 70.905 57.501 128.386 128.431 128.386"/><path d="M562.842 434.764c0-43.795 35.515-79.297 79.324-79.297" style="opacity:1;fill:none;fill-opacity:1;fill-rule:nonzero;stroke:#ce261d;stroke-linejoin:miter;stroke-miterlimit:4;stroke-dasharray:none;stroke-opacity:1;stroke-width:10px"/><path style="opacity:1;fill:none;fill-opacity:1;fill-rule:nonzero;stroke:#ce261d;stroke-linejoin:miter;stroke-miterlimit:4;stroke-dasharray:none;stroke-opacity:1;stroke-width:10px" d="M642.166 355.467c0 27.11 21.985 49.088 49.105 49.088" transform="rotate(180 666.719 380.011)"/><path d="M661.053 434.762c0-16.683 13.53-30.208 30.219-30.208" style="opacity:1;fill:none;fill-opacity:1;fill-rule:nonzero;stroke:#ce261d;stroke-linejoin:miter;stroke-miterlimit:4;stroke-dasharray:none;stroke-opacity:1;stroke-width:10px" transform="rotate(180 676.162 419.658)"/><path style="opacity:1;fill:none;fill-opacity:1;fill-rule:nonzero;stroke:#ce261d;stroke-linejoin:miter;stroke-miterlimit:4;stroke-dasharray:none;stroke-opacity:1;stroke-width:10px" d="M642.166 415.883c0 10.427 8.456 18.88 18.887 18.88m-18.886-18.88c0-6.256 5.073-11.327 11.331-11.327"/><path d="M562.841 355.275h336.378" style="fill:none;fill-opacity:1;fill-rule:nonzero;stroke:#ce261d;stroke-linejoin:miter;stroke-dasharray:none;stroke-opacity:1;stroke-width:4px"/><path d="M661.053 415.883h-18.887m18.887-11.329v30.209m-18.887-30.208h49.106m-49.106 30.209v-79.297m49.106 79.296H562.841m128.431-79.296V563.15" style="fill:none;fill-opacity:1;fill-rule:nonzero;stroke:#ce261d;stroke-linejoin:miter;stroke-miterlimit:4;stroke-dasharray:none;stroke-opacity:1;stroke-width:4px"/><path d="M70.56 719.563h13.936l-26.963-113H45.976l-27.12 113H32.63l6-24.9h26.08Zm-28.802-38.15 10.01-41.538 9.716 41.538Zm46.818-74.85h-1v113h13.25v-38.1h11.3c4.849-.019 11.976-1.129 17.736-4.662 5.451-3.868 10.236-11.351 10.564-22.557v-20.581c-.195-8.723-3.585-15.96-8.411-20.429-5.099-4.145-12.53-6.578-19.877-6.671Zm23.55 61.65h-11.3v-48.4h11.315c4.833-.058 8.469.802 10.971 3.291l.047.046.053.038c2.873 2.026 4.128 4.994 3.964 10.476l.001 20.612c.352 6.927-1.916 9.839-5.24 11.704-2.905 2.175-6.571 2.238-9.811 2.233Zm77.823-17.101.048-.038.04-.043c1.935-2.092 4.581-2.718 8.386-2.718 3.612 0 8.077.995 13.973 2.946l1.312.432 5.252 1.728 1.313.432v-13.909l-4.05-1.392c-6.376-2.161-12.906-3.487-17.8-3.487-6.397 0-12.889 2.238-17.385 6.009-4.191 4.073-7.284 10.801-7.465 18.819v36.322c.18 8.018 3.167 14.67 7.359 18.745 4.494 3.772 11.093 6.105 17.491 6.105 4.893 0 11.414-1.323 17.791-3.485l.682-.234 1.352-.464 1.35-.464.675-.232v-13.909l-7.877 2.592c-5.89 1.954-10.36 2.946-13.973 2.946-3.822 0-6.355-.529-8.277-2.618l-.038-.041-.049-.039c-2.3-1.794-3.398-4.275-3.236-8.857v-36.344c-.156-4.599.832-7.025 3.126-8.802Zm88.823 8.801c-.18-8.018-3.167-14.67-7.359-18.745-4.493-3.772-11.093-6.105-17.491-6.105-6.325 0-12.785 2.244-17.262 6.017-4.171 4.07-7.258 10.793-7.438 18.811v36.322c.18 8.018 3.164 14.666 7.335 18.737 4.475 3.775 11.038 6.113 17.365 6.113 6.395 0 12.89-2.238 17.385-6.01 4.193-4.074 7.284-10.8 7.465-18.818Zm-13.25 36.345c.163 4.582-.94 7.068-3.241 8.861l-.051.039-.039.043c-1.911 2.09-4.444 2.612-8.269 2.612-3.805 0-6.453-.626-8.386-2.718l-.04-.043-.048-.038c-2.294-1.777-3.282-4.203-3.126-8.802v-36.344c-.162-4.581.939-7.067 3.239-8.858l.05-.039.039-.042c1.917-2.089 4.45-2.616 8.272-2.616 3.805 0 6.455.629 8.389 2.72l.04.043.049.038c2.295 1.773 3.276 4.199 3.122 8.8Zm64.39-55.09c-4.494-3.772-11.093-6.105-17.492-6.105-3.569 0-8.442 1.214-12.927 2.766l1.327-.459v-.807h-13.1v83h13.1v-69.568l.747-.192c3.977-1.035 7.423-1.49 10.853-1.49 3.823 0 6.356.529 8.277 2.618l.038.041.05.039c2.299 1.792 3.398 4.275 3.235 8.857v59.695h13.25v-59.65c-.179-8.019-3.166-14.67-7.358-18.745Zm32.533 9.944.048-.038.04-.043c1.933-2.092 4.581-2.718 8.386-2.718 3.611 0 8.076.995 13.973 2.946l2.629.862 5.248 1.724v-13.903l-4.05-1.392c-6.376-2.161-12.906-3.487-17.8-3.487-6.395 0-12.89 2.238-17.385 6.01-4.193 4.074-7.284 10.8-7.465 18.818v36.322c.18 8.018 3.167 14.67 7.359 18.745 4.493 3.772 11.093 6.105 17.491 6.105 4.893 0 11.413-1.323 17.79-3.485l.682-.234 1.353-.464 1.35-.464.675-.232v-13.909l-7.877 2.592c-5.891 1.954-10.361 2.946-13.973 2.946-3.822 0-6.355-.528-8.272-2.616l-.039-.042-.05-.039c-2.302-1.792-3.401-4.277-3.239-8.858v-36.344c-.156-4.599.832-7.025 3.126-8.802Zm52.373 8.756c-.163-4.582.936-7.065 3.235-8.857l.05-.039.038-.041c1.921-2.089 4.455-2.618 8.277-2.618 3.805 0 6.454.628 8.39 2.72l.04.043.049.038c2.294 1.774 3.275 4.199 3.121 8.8v11.599h-23.2Zm31.425 57.012 1.35-.464.675-.232v-13.909l-7.877 2.592c-5.891 1.954-10.361 2.946-13.973 2.946-3.825 0-6.358-.522-8.269-2.612l-.039-.042-.05-.04c-2.301-1.794-3.406-4.28-3.242-8.861v-11.645h36.45v-24.7c-.18-8.018-3.167-14.67-7.359-18.745-4.494-3.772-11.093-6.105-17.491-6.105-6.326 0-12.786 2.244-17.262 6.016-4.171 4.071-7.258 10.794-7.438 18.812v36.322c.179 8.019 3.164 14.666 7.335 18.738 4.472 3.773 11.037 6.112 17.365 6.112 4.892 0 11.413-1.323 17.79-3.485l.682-.234Zm27.073-79.881v-.436h-13.1v119.3h13.1v-36.682c3.282 1.053 5.741 1.882 11.6 1.882 6.395 0 12.89-2.238 17.385-6.01 4.193-4.074 7.284-10.8 7.465-18.818v-36.322c-.18-8.018-3.167-14.67-7.359-18.745-4.493-3.772-11.093-6.105-17.491-6.105-4.646 0-8.183.831-11.6 1.936Zm11.6 11.314c3.805 0 6.453.626 8.386 2.718l.04.043.048.038c2.294 1.777 3.282 4.203 3.126 8.802v36.344c.162 4.583-.936 7.068-3.239 8.858l-.05.039-.039.043c-1.916 2.088-4.45 2.615-8.272 2.615-4.462 0-7.503-.52-11.6-1.588v-56.244c4.09-1.153 7.138-1.668 11.6-1.668Zm52.599-26.3h-13.25v14.55h-10.05v13.25h10.05v46.4c.194 8.049 3.329 14.727 7.742 18.803 4.684 3.748 10.289 5.615 15.969 5.99l1.074.059 2.109.11 3.156.165v-13.177l-5.552-.414c-3.658-.242-5.536-.535-7.662-2.661l-.039-.039-.049-.035c-2.495-1.807-3.688-4.232-3.498-8.748v-46.453h18.9v-13.25h-18.9Zm86.997 97.125v.425h13.25v-120.5h-13.25v37.96c-3.37-1.115-5.891-1.96-11.6-1.96-6.325 0-12.785 2.244-17.262 6.017-4.171 4.07-7.258 10.793-7.438 18.811v36.322c.18 8.018 3.164 14.666 7.335 18.737 4.475 3.775 11.038 6.113 17.365 6.113 4.563 0 8.115-.848 11.6-1.925Zm-11.6-70.825c4.463 0 7.509.514 11.6 1.668v56.242c-4.136 1.069-7.333 1.59-11.6 1.59-3.805 0-6.455-.629-8.389-2.72l-.04-.043-.049-.038c-2.294-1.774-3.276-4.199-3.122-8.8v-36.344c-.163-4.581.941-7.069 3.242-8.861l.051-.039.039-.043c1.911-2.09 4.443-2.612 8.268-2.612Zm46.898 11.555c-.163-4.581.941-7.068 3.242-8.861l.051-.039.039-.043c1.911-2.09 4.443-2.612 8.268-2.612 3.806 0 6.451.626 8.388 2.719l.04.042.048.037c2.293 1.779 3.281 4.205 3.124 8.803v11.599h-23.2Zm31.425 57.012 1.35-.464.675-.232v-13.909l-7.877 2.592c-5.89 1.954-10.36 2.946-13.973 2.946-3.825 0-6.357-.522-8.27-2.612l-.039-.043-.05-.039c-2.301-1.794-3.404-4.279-3.241-8.861v-11.645h36.45v-24.7c-.179-8.019-3.166-14.67-7.358-18.745-4.494-3.772-11.093-6.105-17.492-6.105-6.325 0-12.785 2.244-17.261 6.016-4.171 4.071-7.258 10.794-7.439 18.812v36.322c.181 8.019 3.166 14.667 7.337 18.737 4.473 3.777 11.036 6.113 17.363 6.113 4.893 0 11.414-1.323 17.791-3.485l.682-.234Zm47.111-11.89-.049.039-.04.044c-1.914 2.13-4.54 2.74-8.348 2.74-5.708 0-10.205-1.007-16.253-2.969l-5.232-1.692-1.308-.423-1.307-.422v13.896l4.086 1.374c6.5 2.163 13.019 3.486 20.014 3.486 6.383 0 12.882-2.205 17.397-6.022 4.174-4.102 7.453-10.949 7.453-19.278 0-9.618-4.166-16.081-8.751-19.504-4.886-3.094-11.072-4.332-15.587-4.73-3.173-.293-6.126-.467-8.284-2.256l-.045-.037-.056-.032c-2.523-1.447-3.727-3.518-3.727-8.841 0-4.885.866-7.418 3.164-9.228l.049-.039.04-.045c1.912-2.131 4.538-2.738 8.347-2.738 3.61 0 8.076.995 13.973 2.946l2.629.862 5.248 1.724v-13.903l-4.05-1.392c-6.376-2.161-12.906-3.487-17.8-3.487-6.312 0-12.777 2.208-17.273 6.027-4.152 4.1-7.427 10.945-7.427 19.273 0 9.607 4.116 16.069 8.665 19.494 4.847 3.096 11.008 4.343 15.527 4.74 3.173.293 6.121.466 8.278 2.255l.045.037.056.032c2.524 1.448 3.729 3.519 3.729 8.842 0 4.884-.868 7.417-3.163 9.227Zm25.061 14.573h13.25v-83h-13.25Zm0-87.15h13.25v-25.85h-13.25Zm54 109.32c-1.926 1.889-4.358 2.38-8 2.38-5.709 0-10.205-1.007-16.253-2.969l-5.232-1.692-1.308-.423-1.307-.422v14.102l4.193 1.325c6.452 2.023 12.913 3.329 19.907 3.329 6.395 0 12.89-2.238 17.385-6.01 4.193-4.074 7.284-10.8 7.465-18.818v-95.972h-13.25v.466c-3.494-1.123-7.047-1.966-11.6-1.966-6.325 0-12.785 2.244-17.262 6.017-4.171 4.07-7.258 10.793-7.438 18.811v36.322c.18 8.018 3.164 14.666 7.335 18.737 4.475 3.776 11.038 6.113 17.365 6.113 5.71 0 8.237-.859 11.6-1.921v13.37c.155 4.599-.832 7.025-3.126 8.802Zm-8-93.42c4.463 0 7.509.514 11.6 1.668v56.242c-4.136 1.069-7.333 1.59-11.6 1.59-3.805 0-6.453-.626-8.386-2.718l-.04-.043-.048-.038c-2.294-1.777-3.281-4.203-3.126-8.802v-36.344c-.163-4.581.94-7.068 3.24-8.861l.051-.039.039-.043c1.912-2.089 4.445-2.612 8.27-2.612Zm75.99-7.145c-4.494-3.772-11.093-6.105-17.492-6.105-3.569 0-8.442 1.214-12.927 2.766l1.327-.459v-.807h-13.1v83h13.1v-69.568l.747-.192c3.977-1.035 7.423-1.49 10.853-1.49 3.823 0 6.355.528 8.276 2.617l.038.041.049.039c2.299 1.794 3.401 4.277 3.237 8.858v59.695h13.25v-59.65c-.179-8.019-3.166-14.67-7.358-18.745Z" style="paint-order:fill;white-space:pre;stroke-width:4px;fill:#ce261d"/></svg><svg version="1.0" viewBox="0 0 915 770" id="logo_no_bg_white_stroke" xmlns="http://www.w3.org/2000/svg"><path d="M89.978 293.236h472.921M562.841 563.15V19.398" style="fill:none;fill-opacity:1;fill-rule:nonzero;stroke:#fff;stroke-linejoin:miter;stroke-dasharray:none;stroke-opacity:1;stroke-width:10px"/><path d="M18.898 563.15c0-300.306 243.532-543.752 543.943-543.752" style="opacity:1;fill:none;fill-opacity:1;fill-rule:nonzero;stroke:#fff;stroke-linejoin:miter;stroke-dasharray:none;stroke-opacity:1;stroke-width:10px"/><path style="opacity:1;fill:none;fill-opacity:1;fill-rule:nonzero;stroke:#fff;stroke-linejoin:miter;stroke-dasharray:none;stroke-opacity:1;stroke-width:10px" d="M562.841 19.398c0 185.605 150.516 336.068 336.186 336.068" transform="rotate(180 730.934 187.432)"/><path d="M691.309 355.43c0 114.74 92.982 207.756 207.682 207.756" style="opacity:1;fill:none;fill-opacity:1;fill-rule:nonzero;stroke:#fff;stroke-linejoin:miter;stroke-miterlimit:4;stroke-dasharray:none;stroke-opacity:1;stroke-width:10px" transform="rotate(-90 795.15 459.308)"/><path style="opacity:1;fill:none;fill-opacity:1;fill-rule:nonzero;stroke:#fff;stroke-linejoin:miter;stroke-miterlimit:4;stroke-dasharray:none;stroke-opacity:1;stroke-width:10px" d="M562.841 434.763c0 70.905 57.501 128.386 128.431 128.386"/><path d="M562.842 434.764c0-43.795 35.515-79.297 79.324-79.297" style="opacity:1;fill:none;fill-opacity:1;fill-rule:nonzero;stroke:#fff;stroke-linejoin:miter;stroke-miterlimit:4;stroke-dasharray:none;stroke-opacity:1;stroke-width:10px"/><path style="opacity:1;fill:none;fill-opacity:1;fill-rule:nonzero;stroke:#fff;stroke-linejoin:miter;stroke-miterlimit:4;stroke-dasharray:none;stroke-opacity:1;stroke-width:10px" d="M642.166 355.467c0 27.11 21.985 49.088 49.105 49.088" transform="rotate(180 666.719 380.011)"/><path d="M661.053 434.762c0-16.683 13.53-30.208 30.219-30.208" style="opacity:1;fill:none;fill-opacity:1;fill-rule:nonzero;stroke:#fff;stroke-linejoin:miter;stroke-miterlimit:4;stroke-dasharray:none;stroke-opacity:1;stroke-width:10px" transform="rotate(180 676.162 419.658)"/><path style="opacity:1;fill:none;fill-opacity:1;fill-rule:nonzero;stroke:#fff;stroke-linejoin:miter;stroke-miterlimit:4;stroke-dasharray:none;stroke-opacity:1;stroke-width:10px" d="M642.166 415.883c0 10.427 8.456 18.88 18.887 18.88m-18.886-18.88c0-6.256 5.073-11.327 11.331-11.327"/><path d="M562.841 355.275h336.378" style="fill:none;fill-opacity:1;fill-rule:nonzero;stroke:#fff;stroke-linejoin:miter;stroke-dasharray:none;stroke-opacity:1;stroke-width:4px"/><path d="M661.053 415.883h-18.887m18.887-11.329v30.209m-18.887-30.208h49.106m-49.106 30.209v-79.297m49.106 79.296H562.841m128.431-79.296V563.15" style="fill:none;fill-opacity:1;fill-rule:nonzero;stroke:#fff;stroke-linejoin:miter;stroke-miterlimit:4;stroke-dasharray:none;stroke-opacity:1;stroke-width:4px"/><path d="M70.56 719.563h13.936l-26.963-113H45.976l-27.12 113H32.63l6-24.9h26.08Zm-28.802-38.15 10.01-41.538 9.716 41.538Zm46.818-74.85h-1v113h13.25v-38.1h11.3c4.849-.019 11.976-1.129 17.736-4.662 5.451-3.868 10.236-11.351 10.564-22.557v-20.581c-.195-8.723-3.585-15.96-8.411-20.429-5.099-4.145-12.53-6.578-19.877-6.671Zm23.55 61.65h-11.3v-48.4h11.315c4.833-.058 8.469.802 10.971 3.291l.047.046.053.038c2.873 2.026 4.128 4.994 3.964 10.476l.001 20.612c.352 6.927-1.916 9.839-5.24 11.704-2.905 2.175-6.571 2.238-9.811 2.233Zm77.823-17.101.048-.038.04-.043c1.935-2.092 4.581-2.718 8.386-2.718 3.612 0 8.077.995 13.973 2.946l1.312.432 5.252 1.728 1.313.432v-13.909l-4.05-1.392c-6.376-2.161-12.906-3.487-17.8-3.487-6.397 0-12.889 2.238-17.385 6.009-4.191 4.073-7.284 10.801-7.465 18.819v36.322c.18 8.018 3.167 14.67 7.359 18.745 4.494 3.772 11.093 6.105 17.491 6.105 4.893 0 11.414-1.323 17.791-3.485l.682-.234 1.352-.464 1.35-.464.675-.232v-13.909l-7.877 2.592c-5.89 1.954-10.36 2.946-13.973 2.946-3.822 0-6.355-.529-8.277-2.618l-.038-.041-.049-.039c-2.3-1.794-3.398-4.275-3.236-8.857v-36.344c-.156-4.599.832-7.025 3.126-8.802Zm88.823 8.801c-.18-8.018-3.167-14.67-7.359-18.745-4.493-3.772-11.093-6.105-17.491-6.105-6.325 0-12.785 2.244-17.262 6.017-4.171 4.07-7.258 10.793-7.438 18.811v36.322c.18 8.018 3.164 14.666 7.335 18.737 4.475 3.775 11.038 6.113 17.365 6.113 6.395 0 12.89-2.238 17.385-6.01 4.193-4.074 7.284-10.8 7.465-18.818Zm-13.25 36.345c.163 4.582-.94 7.068-3.241 8.861l-.051.039-.039.043c-1.911 2.09-4.444 2.612-8.269 2.612-3.805 0-6.453-.626-8.386-2.718l-.04-.043-.048-.038c-2.294-1.777-3.282-4.203-3.126-8.802v-36.344c-.162-4.581.939-7.067 3.239-8.858l.05-.039.039-.042c1.917-2.089 4.45-2.616 8.272-2.616 3.805 0 6.455.629 8.389 2.72l.04.043.049.038c2.295 1.773 3.276 4.199 3.122 8.8Zm64.39-55.09c-4.494-3.772-11.093-6.105-17.492-6.105-3.569 0-8.442 1.214-12.927 2.766l1.327-.459v-.807h-13.1v83h13.1v-69.568l.747-.192c3.977-1.035 7.423-1.49 10.853-1.49 3.823 0 6.356.529 8.277 2.618l.038.041.05.039c2.299 1.792 3.398 4.275 3.235 8.857v59.695h13.25v-59.65c-.179-8.019-3.166-14.67-7.358-18.745Zm32.533 9.944.048-.038.04-.043c1.933-2.092 4.581-2.718 8.386-2.718 3.611 0 8.076.995 13.973 2.946l2.629.862 5.248 1.724v-13.903l-4.05-1.392c-6.376-2.161-12.906-3.487-17.8-3.487-6.395 0-12.89 2.238-17.385 6.01-4.193 4.074-7.284 10.8-7.465 18.818v36.322c.18 8.018 3.167 14.67 7.359 18.745 4.493 3.772 11.093 6.105 17.491 6.105 4.893 0 11.413-1.323 17.79-3.485l.682-.234 1.353-.464 1.35-.464.675-.232v-13.909l-7.877 2.592c-5.891 1.954-10.361 2.946-13.973 2.946-3.822 0-6.355-.528-8.272-2.616l-.039-.042-.05-.039c-2.302-1.792-3.401-4.277-3.239-8.858v-36.344c-.156-4.599.832-7.025 3.126-8.802Zm52.373 8.756c-.163-4.582.936-7.065 3.235-8.857l.05-.039.038-.041c1.921-2.089 4.455-2.618 8.277-2.618 3.805 0 6.454.628 8.39 2.72l.04.043.049.038c2.294 1.774 3.275 4.199 3.121 8.8v11.599h-23.2Zm31.425 57.012 1.35-.464.675-.232v-13.909l-7.877 2.592c-5.891 1.954-10.361 2.946-13.973 2.946-3.825 0-6.358-.522-8.269-2.612l-.039-.042-.05-.04c-2.301-1.794-3.406-4.28-3.242-8.861v-11.645h36.45v-24.7c-.18-8.018-3.167-14.67-7.359-18.745-4.494-3.772-11.093-6.105-17.491-6.105-6.326 0-12.786 2.244-17.262 6.016-4.171 4.071-7.258 10.794-7.438 18.812v36.322c.179 8.019 3.164 14.666 7.335 18.738 4.472 3.773 11.037 6.112 17.365 6.112 4.892 0 11.413-1.323 17.79-3.485l.682-.234Zm27.073-79.881v-.436h-13.1v119.3h13.1v-36.682c3.282 1.053 5.741 1.882 11.6 1.882 6.395 0 12.89-2.238 17.385-6.01 4.193-4.074 7.284-10.8 7.465-18.818v-36.322c-.18-8.018-3.167-14.67-7.359-18.745-4.493-3.772-11.093-6.105-17.491-6.105-4.646 0-8.183.831-11.6 1.936Zm11.6 11.314c3.805 0 6.453.626 8.386 2.718l.04.043.048.038c2.294 1.777 3.282 4.203 3.126 8.802v36.344c.162 4.583-.936 7.068-3.239 8.858l-.05.039-.039.043c-1.916 2.088-4.45 2.615-8.272 2.615-4.462 0-7.503-.52-11.6-1.588v-56.244c4.09-1.153 7.138-1.668 11.6-1.668Zm52.599-26.3h-13.25v14.55h-10.05v13.25h10.05v46.4c.194 8.049 3.329 14.727 7.742 18.803 4.684 3.748 10.289 5.615 15.969 5.99l1.074.059 2.109.11 3.156.165v-13.177l-5.552-.414c-3.658-.242-5.536-.535-7.662-2.661l-.039-.039-.049-.035c-2.495-1.807-3.688-4.232-3.498-8.748v-46.453h18.9v-13.25h-18.9Zm86.997 97.125v.425h13.25v-120.5h-13.25v37.96c-3.37-1.115-5.891-1.96-11.6-1.96-6.325 0-12.785 2.244-17.262 6.017-4.171 4.07-7.258 10.793-7.438 18.811v36.322c.18 8.018 3.164 14.666 7.335 18.737 4.475 3.775 11.038 6.113 17.365 6.113 4.563 0 8.115-.848 11.6-1.925Zm-11.6-70.825c4.463 0 7.509.514 11.6 1.668v56.242c-4.136 1.069-7.333 1.59-11.6 1.59-3.805 0-6.455-.629-8.389-2.72l-.04-.043-.049-.038c-2.294-1.774-3.276-4.199-3.122-8.8v-36.344c-.163-4.581.941-7.069 3.242-8.861l.051-.039.039-.043c1.911-2.09 4.443-2.612 8.268-2.612Zm46.898 11.555c-.163-4.581.941-7.068 3.242-8.861l.051-.039.039-.043c1.911-2.09 4.443-2.612 8.268-2.612 3.806 0 6.451.626 8.388 2.719l.04.042.048.037c2.293 1.779 3.281 4.205 3.124 8.803v11.599h-23.2Zm31.425 57.012 1.35-.464.675-.232v-13.909l-7.877 2.592c-5.89 1.954-10.36 2.946-13.973 2.946-3.825 0-6.357-.522-8.27-2.612l-.039-.043-.05-.039c-2.301-1.794-3.404-4.279-3.241-8.861v-11.645h36.45v-24.7c-.179-8.019-3.166-14.67-7.358-18.745-4.494-3.772-11.093-6.105-17.492-6.105-6.325 0-12.785 2.244-17.261 6.016-4.171 4.071-7.258 10.794-7.439 18.812v36.322c.181 8.019 3.166 14.667 7.337 18.737 4.473 3.777 11.036 6.113 17.363 6.113 4.893 0 11.414-1.323 17.791-3.485l.682-.234Zm47.111-11.89-.049.039-.04.044c-1.914 2.13-4.54 2.74-8.348 2.74-5.708 0-10.205-1.007-16.253-2.969l-5.232-1.692-1.308-.423-1.307-.422v13.896l4.086 1.374c6.5 2.163 13.019 3.486 20.014 3.486 6.383 0 12.882-2.205 17.397-6.022 4.174-4.102 7.453-10.949 7.453-19.278 0-9.618-4.166-16.081-8.751-19.504-4.886-3.094-11.072-4.332-15.587-4.73-3.173-.293-6.126-.467-8.284-2.256l-.045-.037-.056-.032c-2.523-1.447-3.727-3.518-3.727-8.841 0-4.885.866-7.418 3.164-9.228l.049-.039.04-.045c1.912-2.131 4.538-2.738 8.347-2.738 3.61 0 8.076.995 13.973 2.946l2.629.862 5.248 1.724v-13.903l-4.05-1.392c-6.376-2.161-12.906-3.487-17.8-3.487-6.312 0-12.777 2.208-17.273 6.027-4.152 4.1-7.427 10.945-7.427 19.273 0 9.607 4.116 16.069 8.665 19.494 4.847 3.096 11.008 4.343 15.527 4.74 3.173.293 6.121.466 8.278 2.255l.045.037.056.032c2.524 1.448 3.729 3.519 3.729 8.842 0 4.884-.868 7.417-3.163 9.227Zm25.061 14.573h13.25v-83h-13.25Zm0-87.15h13.25v-25.85h-13.25Zm54 109.32c-1.926 1.889-4.358 2.38-8 2.38-5.709 0-10.205-1.007-16.253-2.969l-5.232-1.692-1.308-.423-1.307-.422v14.102l4.193 1.325c6.452 2.023 12.913 3.329 19.907 3.329 6.395 0 12.89-2.238 17.385-6.01 4.193-4.074 7.284-10.8 7.465-18.818v-95.972h-13.25v.466c-3.494-1.123-7.047-1.966-11.6-1.966-6.325 0-12.785 2.244-17.262 6.017-4.171 4.07-7.258 10.793-7.438 18.811v36.322c.18 8.018 3.164 14.666 7.335 18.737 4.475 3.776 11.038 6.113 17.365 6.113 5.71 0 8.237-.859 11.6-1.921v13.37c.155 4.599-.832 7.025-3.126 8.802Zm-8-93.42c4.463 0 7.509.514 11.6 1.668v56.242c-4.136 1.069-7.333 1.59-11.6 1.59-3.805 0-6.453-.626-8.386-2.718l-.04-.043-.048-.038c-2.294-1.777-3.281-4.203-3.126-8.802v-36.344c-.163-4.581.94-7.068 3.24-8.861l.051-.039.039-.043c1.912-2.089 4.445-2.612 8.27-2.612Zm75.99-7.145c-4.494-3.772-11.093-6.105-17.492-6.105-3.569 0-8.442 1.214-12.927 2.766l1.327-.459v-.807h-13.1v83h13.1v-69.568l.747-.192c3.977-1.035 7.423-1.49 10.853-1.49 3.823 0 6.355.528 8.276 2.617l.038.041.049.039c2.299 1.794 3.401 4.277 3.237 8.858v59.695h13.25v-59.65c-.179-8.019-3.166-14.67-7.358-18.745Z" style="paint-order:fill;white-space:pre;stroke-width:4px;fill:#fff"/></svg></svg>