<svg width="1522" height="944" viewBox="0 0 1522 944" fill="none" xmlns="http://www.w3.org/2000/svg">
<g opacity="0.3">
<path d="M127.331 475.465H939.599" stroke="#BAB4B1" stroke-width="9.66102"/>
<path d="M939.5 939.057V5.13293" stroke="#BAB4B1" stroke-width="9.66102"/>
<path d="M5.24707 939.057C5.24707 423.265 423.527 5.13281 939.499 5.13281" stroke="#BAB4B1" stroke-width="9.66102"/>
<path d="M1516.92 582.348C1516.92 263.562 1258.4 5.13307 939.499 5.13307" stroke="#BAB4B1" stroke-width="9.66102"/>
<path d="M1160.09 939.055C1357.16 939.055 1516.92 779.353 1516.92 582.349" stroke="#BAB4B1" stroke-width="9.66102"/>
<path d="M939.5 718.545C939.5 840.328 1038.26 939.055 1160.09 939.055" stroke="#BAB4B1" stroke-width="9.66102"/>
<path d="M939.501 718.547C939.501 643.326 1000.5 582.35 1075.74 582.35" stroke="#BAB4B1" stroke-width="9.66102"/>
<path d="M1160.09 666.662C1160.09 620.099 1122.33 582.35 1075.74 582.35" stroke="#BAB4B1" stroke-width="9.66102"/>
<path d="M1160.09 666.659C1160.09 695.313 1136.85 718.543 1108.18 718.543" stroke="#BAB4B1" stroke-width="9.66102"/>
<path d="M1075.75 686.118C1075.75 704.027 1090.27 718.545 1108.18 718.545" stroke="#BAB4B1" stroke-width="9.66102"/>
<path d="M1075.75 686.118C1075.75 675.373 1084.46 666.663 1095.21 666.663" stroke="#BAB4B1" stroke-width="9.66102"/>
<path d="M939.499 582.02H1517.25" stroke="#BAB4B1" stroke-width="3.86441"/>
<path d="M1108.18 686.117H1075.74" stroke="#BAB4B1" stroke-width="3.86441"/>
<path d="M1108.18 666.659V718.545" stroke="#BAB4B1" stroke-width="3.86441"/>
<path d="M1075.74 666.66H1160.09" stroke="#BAB4B1" stroke-width="3.86441"/>
<path d="M1075.74 718.546V582.349" stroke="#BAB4B1" stroke-width="3.86441"/>
<path d="M1160.09 718.544H939.499" stroke="#BAB4B1" stroke-width="3.86441"/>
<path d="M1160.09 582.349V939.056" stroke="#BAB4B1" stroke-width="3.86441"/>
</g>
</svg>
