<svg width="22" height="22" viewBox="0 0 22 22" fill="none" xmlns="http://www.w3.org/2000/svg">
<path d="M6.52816 1.55325L7.1895 4.73325C7.25172 5.10659 7.24061 5.43236 7.15616 5.71059C7.07261 5.98881 6.92505 6.21681 6.7135 6.39458L13.3282 19.9786C10.9673 18.8524 8.76994 17.2724 6.73616 15.2386C4.71838 13.2039 3.14683 11.0106 2.0215 8.65859C0.896162 6.30659 0.333496 4.00703 0.333496 1.75992C0.333496 1.35992 0.46683 1.02214 0.733496 0.746585C1.00016 0.47103 1.3335 0.333252 1.7335 0.333252H5.03083C5.3935 0.333252 5.70994 0.447474 5.98016 0.675919C6.25038 0.904363 6.43305 1.19681 6.52816 1.55325ZM6.52816 1.55325L6.04506 1.68216C6.04395 1.67798 6.04282 1.67382 6.04168 1.66967M6.52816 1.55325L6.03864 1.65506L6.04168 1.66967M13.5433 19.5272C15.848 20.6258 18.0788 21.1666 20.2402 21.1666C20.5166 21.1666 20.7278 21.0795 20.9058 20.9073C21.0794 20.7393 21.1668 20.5377 21.1668 20.2666V17.0199C21.1668 16.7778 21.0938 16.5728 20.9411 16.3858C20.789 16.2002 20.5937 16.0753 20.3364 16.0103L17.5585 15.4426C17.2925 15.4083 17.0669 15.4233 16.8748 15.4755C16.7051 15.5224 16.5395 15.6213 16.3774 15.796L16.3725 15.8012L16.3675 15.8063L13.5155 18.709L13.249 18.9802L12.9165 18.7959C11.832 18.1949 10.8333 17.5544 9.92118 16.874L9.92093 16.8738C9.00963 16.1931 8.15854 15.4574 7.36794 14.6668L7.36525 14.6641C6.60037 13.8874 5.88087 13.0652 5.2068 12.1975C4.52766 11.3242 3.90847 10.3795 3.3489 9.36387L3.16084 9.02255L3.44591 8.75683L6.37257 6.02883L6.38198 6.02007L6.39182 6.0118C6.5249 5.89996 6.62023 5.75676 6.67729 5.56677L6.67771 5.56537C6.73355 5.38141 6.74924 5.13975 6.69786 4.82489L6.04168 1.66967M13.5433 19.5272L7.08972 14.885C7.08994 14.8853 7.09017 14.8855 7.09039 14.8857M13.5433 19.5272C11.2389 18.4279 9.08773 16.8829 7.09039 14.8857M13.5433 19.5272L7.09039 14.8857M6.04168 1.66967C5.97098 1.41351 5.8431 1.21478 5.65736 1.05775C5.47982 0.907663 5.27853 0.833252 5.03083 0.833252H1.7335C1.4624 0.833252 1.26081 0.920682 1.0928 1.0943C0.920603 1.27223 0.833496 1.48348 0.833496 1.75992C0.833496 3.92126 1.37428 6.14739 2.47253 8.44279C3.57129 10.7393 5.10851 12.8871 7.09039 14.8857" fill="#0F0806" stroke="#0F0806"/>
</svg>
