<svg width="48" height="48" viewBox="0 0 48 48" fill="none" xmlns="http://www.w3.org/2000/svg">
<path d="M38.0401 9.94996C35.2621 7.17315 31.723 5.28248 27.8705 4.51701C24.0179 3.75155 20.0248 4.14568 16.3963 5.64955C12.7677 7.15343 9.66655 9.69952 7.48498 12.9659C5.30341 16.2322 4.1394 20.0721 4.14014 24C4.14014 29.2681 6.2322 34.3206 9.95639 38.0466C13.6806 41.7727 18.732 43.8673 24.0001 43.87C26.6071 43.8711 29.1891 43.3615 31.6001 42.37C34.0035 41.3554 36.1898 39.8889 38.0401 38.05C39.8854 36.205 41.3492 34.0146 42.3479 31.6039C43.3465 29.1932 43.8605 26.6093 43.8605 24C43.8605 21.3906 43.3465 18.8067 42.3479 16.396C41.3492 13.9853 39.8854 11.7949 38.0401 9.94996ZM36.6401 36.63C33.7803 39.5021 30.0277 41.3149 26.0001 41.77V28.65H29.7601C30.2906 28.65 30.7993 28.4392 31.1744 28.0642C31.5494 27.6891 31.7601 27.1804 31.7601 26.65C31.7601 26.1195 31.5494 25.6108 31.1744 25.2357C30.7993 24.8607 30.2906 24.65 29.7601 24.65H26.0001V19.17C26.0001 18.6395 26.2109 18.1308 26.5859 17.7557C26.961 17.3807 27.4697 17.17 28.0001 17.17H30.4001C30.9306 17.17 31.4393 16.9592 31.8144 16.5842C32.1894 16.2091 32.4001 15.7004 32.4001 15.17C32.4001 14.6395 32.1894 14.1308 31.8144 13.7557C31.4393 13.3807 30.9306 13.17 30.4001 13.17H27.0001C25.6741 13.17 24.4023 13.6967 23.4646 14.6344C22.5269 15.5721 22.0001 16.8439 22.0001 18.17V24.65H18.2601C17.7297 24.65 17.221 24.8607 16.8459 25.2357C16.4709 25.6108 16.2601 26.1195 16.2601 26.65C16.2601 27.1804 16.4709 27.6891 16.8459 28.0642C17.221 28.4392 17.7297 28.65 18.2601 28.65H22.0001V41.77C18.2859 41.3462 14.7987 39.7663 12.031 37.2533C9.26337 34.7403 7.35516 31.4213 6.57594 27.7651C5.79671 24.1089 6.18585 20.3003 7.6884 16.8773C9.19094 13.4542 11.7309 10.5897 14.9496 8.6884C18.1683 6.78708 21.903 5.94503 25.6262 6.2812C29.3493 6.61736 32.8728 8.11475 35.6989 10.5618C38.5249 13.0089 40.5108 16.2821 41.3759 19.9189C42.241 23.5557 41.9417 27.3725 40.5201 30.83C39.6148 32.9964 38.297 34.9662 36.6401 36.63Z" fill="#0F0806"/>
</svg>
