<svg width="48" height="48" viewBox="0 0 48 48" fill="none" xmlns="http://www.w3.org/2000/svg">
<path d="M32 14C32 13.4696 32.2107 12.9609 32.5858 12.5858C32.9609 12.2107 33.4696 12 34 12C34.5304 12 35.0391 12.2107 35.4142 12.5858C35.7893 12.9609 36 13.4696 36 14C36 14.5304 35.7893 15.0391 35.4142 15.4142C35.0391 15.7893 34.5304 16 34 16C33.4696 16 32.9609 15.7893 32.5858 15.4142C32.2107 15.0391 32 14.5304 32 14Z" fill="#0F0806"/>
<path fill-rule="evenodd" clip-rule="evenodd" d="M24 14.5C21.4804 14.5 19.0641 15.5009 17.2825 17.2825C15.5009 19.0641 14.5 21.4804 14.5 24C14.5 26.5196 15.5009 28.9359 17.2825 30.7175C19.0641 32.4991 21.4804 33.5 24 33.5C26.5196 33.5 28.9359 32.4991 30.7175 30.7175C32.4991 28.9359 33.5 26.5196 33.5 24C33.5 21.4804 32.4991 19.0641 30.7175 17.2825C28.9359 15.5009 26.5196 14.5 24 14.5ZM17.5 24C17.5 22.2761 18.1848 20.6228 19.4038 19.4038C20.6228 18.1848 22.2761 17.5 24 17.5C25.7239 17.5 27.3772 18.1848 28.5962 19.4038C29.8152 20.6228 30.5 22.2761 30.5 24C30.5 25.7239 29.8152 27.3772 28.5962 28.5962C27.3772 29.8152 25.7239 30.5 24 30.5C22.2761 30.5 20.6228 29.8152 19.4038 28.5962C18.1848 27.3772 17.5 25.7239 17.5 24Z" fill="#0F0806"/>
<path fill-rule="evenodd" clip-rule="evenodd" d="M34.5161 5.66607C27.5269 4.89126 20.4734 4.89126 13.4841 5.66607C9.46011 6.11607 6.21011 9.28607 5.73811 13.3301C4.90891 20.4192 4.90891 27.5809 5.73811 34.6701C6.21011 38.7141 9.45811 41.8841 13.4841 42.3341C20.4734 43.1081 27.5268 43.1081 34.5161 42.3341C38.5401 41.8841 41.7901 38.7141 42.2621 34.6701C43.0915 27.5809 43.0915 20.4192 42.2621 13.3301C41.7901 9.28607 38.5421 6.11607 34.5161 5.66607ZM13.8161 8.64607C20.5847 7.89581 27.4155 7.89581 34.1841 8.64607C36.8441 8.94607 38.9741 11.0441 39.2841 13.6801C40.086 20.5367 40.086 27.4634 39.2841 34.3201C39.1238 35.6101 38.5332 36.8085 37.6078 37.7216C36.6824 38.6346 35.4762 39.2091 34.1841 39.3521C27.4155 40.1024 20.5847 40.1024 13.8161 39.3521C12.524 39.2091 11.3178 38.6346 10.3924 37.7216C9.46703 36.8085 8.87646 35.6101 8.71611 34.3201C7.91421 27.4634 7.91421 20.5367 8.71611 13.6801C8.87646 12.39 9.46703 11.1916 10.3924 10.2786C11.3178 9.36551 12.524 8.78908 13.8161 8.64607Z" fill="#0F0806"/>
</svg>
