<?xml version="1.0" encoding="utf-8"?>
<svg
  version="1.0" 
  height="770"
  width="915"
  id="AP_concept_design_logo"
  style=""
  viewBox="0 0 915 770" 
  xmlns="http://www.w3.org/2000/svg" 
  xmlns:bx="https://boxy-svg.com"
  >

  <g style="">
    <g style="">
      <path id="path-1" d="M 89.978 293.236 L 562.899 293.236" style="fill: none; fill-opacity: 1; fill-rule: nonzero; stroke: rgb(0, 0, 0); stroke-linejoin: miter; stroke-dasharray: none; stroke-opacity: 1; stroke-width: 10px;">
        <title>line A</title>
      </path>
      <path id="rect2806" d="M 562.841 563.15 L 562.841 19.398" style="fill: none; fill-opacity: 1; fill-rule: nonzero; stroke: rgb(0, 0, 0); stroke-linejoin: miter; stroke-dasharray: none; stroke-opacity: 1; stroke-width: 10px;">
        <title>main Line</title>
      </path>
      <path d="M 18.898 563.15 C 18.898 262.844 262.43 19.398 562.841 19.398" id="path1873" style="opacity: 1; fill: none; fill-opacity: 1; fill-rule: nonzero; stroke: rgb(0, 0, 0); stroke-linejoin: miter; stroke-dasharray: none; stroke-opacity: 1; stroke-width: 10px;">
        <title>spiral A</title>
      </path>
      <g style="">
        <title>spiral P</title>
        <path style="opacity: 1; fill: none; fill-opacity: 1; fill-rule: nonzero; stroke: rgb(0, 0, 0); stroke-linejoin: miter; stroke-dasharray: none; stroke-opacity: 1; stroke-width: 10px;" id="path1875" d="M 562.841 19.398 C 562.841 205.003 713.357 355.466 899.027 355.466" transform="matrix(-1, 0, 0, -1, 1461.867981, 374.864086)"/>
        <path d="M 691.309 355.43 C 691.309 470.17 784.291 563.186 898.991 563.186" id="path2762" style="opacity: 1; fill: none; fill-opacity: 1; fill-rule: nonzero; stroke: rgb(0, 0, 0); stroke-linejoin: miter; stroke-miterlimit: 4; stroke-dasharray: none; stroke-opacity: 1; stroke-width: 10px;" transform="matrix(0, -1, 1, 0, 335.842041, 1254.458008)"/>
        <path style="opacity: 1; fill: none; fill-opacity: 1; fill-rule: nonzero; stroke: rgb(0, 0, 0); stroke-linejoin: miter; stroke-miterlimit: 4; stroke-dasharray: none; stroke-opacity: 1; stroke-width: 10px;" id="path2764" d="M 562.841 434.763 C 562.841 505.668 620.342 563.149 691.272 563.149"/>
        <path d="M 562.842 434.764 C 562.842 390.969 598.357 355.467 642.166 355.467" id="path2766" style="opacity: 1; fill: none; fill-opacity: 1; fill-rule: nonzero; stroke: rgb(0, 0, 0); stroke-linejoin: miter; stroke-miterlimit: 4; stroke-dasharray: none; stroke-opacity: 1; stroke-width: 10px;"/>
        <path style="opacity: 1; fill: none; fill-opacity: 1; fill-rule: nonzero; stroke: rgb(0, 0, 0); stroke-linejoin: miter; stroke-miterlimit: 4; stroke-dasharray: none; stroke-opacity: 1; stroke-width: 10px;" id="path2768" d="M 642.166 355.467 C 642.166 382.577 664.151 404.555 691.271 404.555" transform="matrix(-1, 0, 0, -1, 1333.437012, 760.022003)"/>
        <path d="M 661.053 434.762 C 661.053 418.079 674.583 404.554 691.272 404.554" id="path2770" style="opacity: 1; fill: none; fill-opacity: 1; fill-rule: nonzero; stroke: rgb(0, 0, 0); stroke-linejoin: miter; stroke-miterlimit: 4; stroke-dasharray: none; stroke-opacity: 1; stroke-width: 10px;" transform="matrix(-1, 0, 0, -1, 1352.324951, 839.315979)"/>
        <path style="opacity: 1; fill: none; fill-opacity: 1; fill-rule: nonzero; stroke: rgb(0, 0, 0); stroke-linejoin: miter; stroke-miterlimit: 4; stroke-dasharray: none; stroke-opacity: 1; stroke-width: 10px;" id="path2772" d="M 642.166 415.883 C 642.166 426.31 650.622 434.763 661.053 434.763"/>
        <path d="M 642.167 415.883 C 642.167 409.627 647.24 404.556 653.498 404.556" id="path2774" style="opacity: 1; fill: none; fill-opacity: 1; fill-rule: nonzero; stroke: rgb(0, 0, 0); stroke-linejoin: miter; stroke-miterlimit: 4; stroke-dasharray: none; stroke-opacity: 1; stroke-width: 10px;"/>
      </g>
    </g>
    <g style="">
      <title>lines BG</title>
      <path id="rect2804" d="M 562.841 355.275 L 899.219 355.275" style="fill: none; fill-opacity: 1; fill-rule: nonzero; stroke: rgb(0, 0, 0); stroke-linejoin: miter; stroke-dasharray: none; stroke-opacity: 1; stroke-width: 4px;"/>
      <path id="rect2786" d="M 661.053 415.883 L 642.166 415.883" style="fill: none; fill-opacity: 1; fill-rule: nonzero; stroke: rgb(0, 0, 0); stroke-linejoin: miter; stroke-miterlimit: 4; stroke-dasharray: none; stroke-opacity: 1; stroke-width: 4px;"/>
      <path id="rect2794" d="M 661.053 404.554 L 661.053 434.763" style="fill: none; fill-opacity: 1; fill-rule: nonzero; stroke: rgb(0, 0, 0); stroke-linejoin: miter; stroke-miterlimit: 4; stroke-dasharray: none; stroke-opacity: 1; stroke-width: 4px;"/>
      <path id="rect2796" d="M 642.166 404.555 L 691.272 404.555" style="fill: none; fill-opacity: 1; fill-rule: nonzero; stroke: rgb(0, 0, 0); stroke-linejoin: miter; stroke-miterlimit: 4; stroke-dasharray: none; stroke-opacity: 1; stroke-width: 4px;"/>
      <path id="rect2798" d="M 642.166 434.764 L 642.166 355.467" style="fill: none; fill-opacity: 1; fill-rule: nonzero; stroke: rgb(0, 0, 0); stroke-linejoin: miter; stroke-miterlimit: 4; stroke-dasharray: none; stroke-opacity: 1; stroke-width: 4px;"/>
      <path id="rect2800" d="M 691.272 434.763 L 562.841 434.763" style="fill: none; fill-opacity: 1; fill-rule: nonzero; stroke: rgb(0, 0, 0); stroke-linejoin: miter; stroke-miterlimit: 4; stroke-dasharray: none; stroke-opacity: 1; stroke-width: 4px;"/>
      <path id="rect2802" d="M 691.272 355.467 L 691.272 563.15" style="fill: none; fill-opacity: 1; fill-rule: nonzero; stroke: rgb(0, 0, 0); stroke-linejoin: miter; stroke-miterlimit: 4; stroke-dasharray: none; stroke-opacity: 1; stroke-width: 4px;"/>
    </g>
  </g>
  <path d="M 70.56 719.563 L 84.496 719.563 L 57.533 606.563 L 45.976 606.563 L 18.856 719.563 L 32.63 719.563 L 38.63 694.663 L 64.71 694.663 Z M 41.758 681.413 L 51.768 639.875 L 61.484 681.413 Z M 88.576 606.563 L 87.576 606.563 L 87.576 719.563 L 100.826 719.563 L 100.826 681.463 L 112.126 681.463 C 116.975 681.444 124.102 680.334 129.862 676.801 C 135.313 672.933 140.098 665.45 140.426 654.244 L 140.426 633.663 C 140.231 624.94 136.841 617.703 132.015 613.234 C 126.916 609.089 119.485 606.656 112.138 606.563 Z M 112.126 668.213 L 100.826 668.213 L 100.826 619.813 L 112.141 619.813 C 116.974 619.755 120.61 620.615 123.112 623.104 L 123.159 623.15 L 123.212 623.188 C 126.085 625.214 127.34 628.182 127.176 633.664 L 127.177 654.276 C 127.529 661.203 125.261 664.115 121.937 665.98 C 119.032 668.155 115.366 668.218 112.126 668.213 Z M 189.949 651.112 L 189.997 651.074 L 190.037 651.031 C 191.972 648.939 194.618 648.313 198.423 648.313 C 202.035 648.313 206.5 649.308 212.396 651.259 L 213.708 651.691 L 218.96 653.419 L 220.273 653.851 L 220.273 639.942 L 216.223 638.55 C 209.847 636.389 203.317 635.063 198.423 635.063 C 192.026 635.063 185.534 637.301 181.038 641.072 C 176.847 645.145 173.754 651.873 173.573 659.891 L 173.573 696.213 C 173.753 704.231 176.74 710.883 180.932 714.958 C 185.426 718.73 192.025 721.063 198.423 721.063 C 203.316 721.063 209.837 719.74 216.214 717.578 L 216.896 717.344 L 218.248 716.88 L 219.598 716.416 L 220.273 716.184 L 220.273 702.275 L 212.396 704.867 C 206.506 706.821 202.036 707.813 198.423 707.813 C 194.601 707.813 192.068 707.284 190.146 705.195 L 190.108 705.154 L 190.059 705.115 C 187.759 703.321 186.661 700.84 186.823 696.258 L 186.823 659.914 C 186.667 655.315 187.655 652.889 189.949 651.112 Z M 278.772 659.913 C 278.592 651.895 275.605 645.243 271.413 641.168 C 266.92 637.396 260.32 635.063 253.922 635.063 C 247.597 635.063 241.137 637.307 236.66 641.08 C 232.489 645.15 229.402 651.873 229.222 659.891 L 229.222 696.213 C 229.402 704.231 232.386 710.879 236.557 714.95 C 241.032 718.725 247.595 721.063 253.922 721.063 C 260.317 721.063 266.812 718.825 271.307 715.053 C 275.5 710.979 278.591 704.253 278.772 696.235 Z M 265.522 696.258 C 265.685 700.84 264.582 703.326 262.281 705.119 L 262.23 705.158 L 262.191 705.201 C 260.28 707.291 257.747 707.813 253.922 707.813 C 250.117 707.813 247.469 707.187 245.536 705.095 L 245.496 705.052 L 245.448 705.014 C 243.154 703.237 242.166 700.811 242.322 696.212 L 242.322 659.868 C 242.16 655.287 243.261 652.801 245.561 651.01 L 245.611 650.971 L 245.65 650.929 C 247.567 648.84 250.1 648.313 253.922 648.313 C 257.727 648.313 260.377 648.942 262.311 651.033 L 262.351 651.076 L 262.4 651.114 C 264.695 652.887 265.676 655.313 265.522 659.914 Z M 329.912 641.168 C 325.418 637.396 318.819 635.063 312.42 635.063 C 308.851 635.063 303.978 636.277 299.493 637.829 L 300.82 637.37 L 300.82 636.563 L 287.72 636.563 L 287.72 719.563 L 300.82 719.563 L 300.82 649.995 C 300.993 649.95 301.229 649.889 301.567 649.803 C 305.544 648.768 308.99 648.313 312.42 648.313 C 316.243 648.313 318.776 648.842 320.697 650.931 L 320.735 650.972 L 320.785 651.011 C 323.084 652.803 324.183 655.286 324.02 659.868 L 324.02 718.563 L 324.02 719.563 L 337.27 719.563 L 337.27 659.913 C 337.091 651.894 334.104 645.243 329.912 641.168 Z M 362.445 651.112 L 362.493 651.074 L 362.533 651.031 C 364.466 648.939 367.114 648.313 370.919 648.313 C 374.53 648.313 378.995 649.308 384.892 651.259 L 387.521 652.121 L 392.769 653.845 L 392.769 639.942 L 388.719 638.55 C 382.343 636.389 375.813 635.063 370.919 635.063 C 364.524 635.063 358.029 637.301 353.534 641.073 C 349.341 645.147 346.25 651.873 346.069 659.891 L 346.069 696.213 C 346.249 704.231 349.236 710.883 353.428 714.958 C 357.921 718.73 364.521 721.063 370.919 721.063 C 375.812 721.063 382.332 719.74 388.709 717.578 L 389.391 717.344 L 390.744 716.88 L 392.094 716.416 L 392.769 716.184 L 392.769 702.275 L 384.892 704.867 C 379.001 706.821 374.531 707.813 370.919 707.813 C 367.097 707.813 364.564 707.285 362.647 705.197 L 362.608 705.155 L 362.558 705.116 C 360.256 703.324 359.157 700.839 359.319 696.258 L 359.319 659.914 C 359.163 655.315 360.151 652.889 362.445 651.112 Z M 414.818 659.868 C 414.655 655.286 415.754 652.803 418.053 651.011 L 418.103 650.972 L 418.141 650.931 C 420.062 648.842 422.596 648.313 426.418 648.313 C 430.223 648.313 432.872 648.941 434.808 651.033 L 434.848 651.076 L 434.897 651.114 C 437.191 652.888 438.172 655.313 438.018 659.914 L 438.018 671.513 L 414.818 671.513 Z M 446.243 716.88 L 447.593 716.416 L 448.268 716.184 L 448.268 702.275 L 440.391 704.867 C 434.5 706.821 430.03 707.813 426.418 707.813 C 422.593 707.813 420.06 707.291 418.149 705.201 L 418.11 705.159 L 418.06 705.119 C 415.759 703.325 414.654 700.839 414.818 696.258 L 414.818 684.613 L 451.268 684.613 L 451.268 659.913 C 451.088 651.895 448.101 645.243 443.909 641.168 C 439.415 637.396 432.816 635.063 426.418 635.063 C 420.092 635.063 413.632 637.307 409.156 641.079 C 404.985 645.15 401.898 651.873 401.718 659.891 L 401.718 696.213 C 401.897 704.232 404.882 710.879 409.053 714.951 C 413.525 718.724 420.09 721.063 426.418 721.063 C 431.31 721.063 437.831 719.74 444.208 717.578 L 444.89 717.344 Z M 473.316 636.999 L 473.316 636.563 L 460.216 636.563 L 460.216 755.863 L 473.316 755.863 L 473.316 719.181 C 476.598 720.234 479.057 721.063 484.916 721.063 C 491.311 721.063 497.806 718.825 502.301 715.053 C 506.494 710.979 509.585 704.253 509.766 696.235 L 509.766 659.913 C 509.586 651.895 506.599 645.243 502.407 641.168 C 497.914 637.396 491.314 635.063 484.916 635.063 C 480.27 635.063 476.733 635.894 473.316 636.999 Z M 484.916 648.313 C 488.721 648.313 491.369 648.939 493.302 651.031 L 493.342 651.074 L 493.39 651.112 C 495.684 652.889 496.672 655.315 496.516 659.914 L 496.516 696.258 C 496.678 700.841 495.58 703.326 493.277 705.116 L 493.227 705.155 L 493.188 705.198 C 491.272 707.286 488.738 707.813 484.916 707.813 C 480.454 707.813 477.413 707.293 473.316 706.225 L 473.316 649.981 C 477.406 648.828 480.454 648.313 484.916 648.313 Z M 537.515 622.013 L 524.265 622.013 L 524.265 636.563 L 514.215 636.563 L 514.215 649.813 L 524.265 649.813 L 524.265 696.213 C 524.459 704.262 527.594 710.94 532.007 715.016 C 536.691 718.764 542.296 720.631 547.976 721.006 L 549.05 721.065 L 551.159 721.175 L 554.315 721.34 L 554.315 708.163 L 548.763 707.749 C 545.105 707.507 543.227 707.214 541.101 705.088 L 541.062 705.049 L 541.013 705.014 C 538.518 703.207 537.325 700.782 537.515 696.266 L 537.515 649.813 L 556.415 649.813 L 556.415 636.563 L 537.515 636.563 Z M 624.512 719.138 L 624.512 719.563 L 637.762 719.563 L 637.762 599.063 L 624.512 599.063 L 624.512 637.023 C 621.142 635.908 618.621 635.063 612.912 635.063 C 606.587 635.063 600.127 637.307 595.65 641.08 C 591.479 645.15 588.392 651.873 588.212 659.891 L 588.212 696.213 C 588.392 704.231 591.376 710.879 595.547 714.95 C 600.022 718.725 606.585 721.063 612.912 721.063 C 617.475 721.063 621.027 720.215 624.512 719.138 Z M 612.912 648.313 C 617.375 648.313 620.421 648.827 624.512 649.981 L 624.512 706.223 C 620.376 707.292 617.179 707.813 612.912 707.813 C 609.107 707.813 606.457 707.184 604.523 705.093 L 604.483 705.05 L 604.434 705.012 C 602.14 703.238 601.158 700.813 601.312 696.212 L 601.312 659.868 C 601.149 655.287 602.253 652.799 604.554 651.007 L 604.605 650.968 L 604.644 650.925 C 606.555 648.835 609.087 648.313 612.912 648.313 Z M 659.81 659.868 C 659.647 655.287 660.751 652.8 663.052 651.007 L 663.103 650.968 L 663.142 650.925 C 665.053 648.835 667.585 648.313 671.41 648.313 C 675.216 648.313 677.861 648.939 679.798 651.032 L 679.838 651.074 L 679.886 651.111 C 682.179 652.89 683.167 655.316 683.01 659.914 L 683.01 671.513 L 659.81 671.513 Z M 691.235 716.88 L 692.585 716.416 L 693.26 716.184 L 693.26 702.275 L 685.383 704.867 C 679.493 706.821 675.023 707.813 671.41 707.813 C 667.585 707.813 665.053 707.291 663.14 705.201 L 663.101 705.158 L 663.051 705.119 C 660.75 703.325 659.647 700.84 659.81 696.258 L 659.81 684.613 L 696.26 684.613 L 696.26 659.913 C 696.081 651.894 693.094 645.243 688.902 641.168 C 684.408 637.396 677.809 635.063 671.41 635.063 C 665.085 635.063 658.625 637.307 654.149 641.079 C 649.978 645.15 646.891 651.873 646.71 659.891 L 646.71 696.213 C 646.891 704.232 649.876 710.88 654.047 714.95 C 658.52 718.727 665.083 721.063 671.41 721.063 C 676.303 721.063 682.824 719.74 689.201 717.578 L 689.883 717.344 Z M 738.346 704.99 L 738.297 705.029 L 738.257 705.073 C 736.343 707.203 733.717 707.813 729.909 707.813 C 724.201 707.813 719.704 706.806 713.656 704.844 L 708.424 703.152 L 707.116 702.729 L 705.809 702.307 L 705.809 716.203 L 709.895 717.577 C 716.395 719.74 722.914 721.063 729.909 721.063 C 736.292 721.063 742.791 718.858 747.306 715.041 C 751.48 710.939 754.759 704.092 754.759 695.763 C 754.759 686.145 750.593 679.682 746.008 676.259 C 741.122 673.165 734.936 671.927 730.421 671.529 C 727.248 671.236 724.295 671.062 722.137 669.273 L 722.092 669.236 L 722.036 669.204 C 719.513 667.757 718.309 665.686 718.309 660.363 C 718.309 655.478 719.175 652.945 721.473 651.135 L 721.522 651.096 L 721.562 651.051 C 723.474 648.92 726.1 648.313 729.909 648.313 C 733.519 648.313 737.985 649.308 743.882 651.259 L 746.511 652.121 L 751.759 653.845 L 751.759 639.942 L 747.709 638.55 C 741.333 636.389 734.803 635.063 729.909 635.063 C 723.597 635.063 717.132 637.271 712.636 641.09 C 708.484 645.19 705.209 652.035 705.209 660.363 C 705.209 669.97 709.325 676.432 713.874 679.857 C 718.721 682.953 724.882 684.2 729.401 684.597 C 732.574 684.89 735.522 685.063 737.679 686.852 L 737.724 686.889 L 737.78 686.921 C 740.304 688.369 741.509 690.44 741.509 695.763 C 741.509 700.647 740.641 703.18 738.346 704.99 Z M 763.407 719.563 L 776.657 719.563 L 776.657 636.563 L 763.407 636.563 Z M 763.407 632.413 L 776.657 632.413 L 776.657 606.563 L 763.407 606.563 Z M 817.407 741.733 C 815.481 743.622 813.049 744.113 809.407 744.113 C 803.698 744.113 799.202 743.106 793.154 741.144 L 787.922 739.452 L 786.614 739.029 L 785.307 738.607 L 785.307 752.709 L 789.5 754.034 C 795.952 756.057 802.413 757.363 809.407 757.363 C 815.802 757.363 822.297 755.125 826.792 751.353 C 830.985 747.279 834.076 740.553 834.257 732.535 L 834.257 637.563 L 834.257 636.563 L 821.007 636.563 L 821.007 637.029 C 817.513 635.906 813.96 635.063 809.407 635.063 C 803.082 635.063 796.622 637.307 792.145 641.08 C 787.974 645.15 784.887 651.873 784.707 659.891 L 784.707 696.213 C 784.887 704.231 787.871 710.879 792.042 714.95 C 796.517 718.726 803.08 721.063 809.407 721.063 C 815.117 721.063 817.644 720.204 821.007 719.142 L 821.007 732.512 C 821.162 737.111 820.175 739.537 817.881 741.314 Z M 809.407 648.313 C 813.87 648.313 816.916 648.827 821.007 649.981 L 821.007 706.223 C 816.871 707.292 813.674 707.813 809.407 707.813 C 805.602 707.813 802.954 707.187 801.021 705.095 L 800.981 705.052 L 800.933 705.014 C 798.639 703.237 797.652 700.811 797.807 696.212 L 797.807 659.868 C 797.644 655.287 798.747 652.8 801.047 651.007 L 801.098 650.968 L 801.137 650.925 C 803.049 648.836 805.582 648.313 809.407 648.313 Z M 885.397 641.168 C 880.903 637.396 874.304 635.063 867.905 635.063 C 864.336 635.063 859.463 636.277 854.978 637.829 L 856.305 637.37 L 856.305 636.563 L 843.205 636.563 L 843.205 719.563 L 856.305 719.563 L 856.305 649.995 C 856.478 649.95 856.714 649.889 857.052 649.803 C 861.029 648.768 864.475 648.313 867.905 648.313 C 871.728 648.313 874.26 648.841 876.181 650.93 L 876.219 650.971 L 876.268 651.01 C 878.567 652.804 879.669 655.287 879.505 659.868 L 879.505 718.563 L 879.505 719.563 L 892.755 719.563 L 892.755 659.913 C 892.576 651.894 889.589 645.243 885.397 641.168 Z" transform="matrix(1, 0, 0, 1, 0, 0)" style="paint-order: fill; white-space: pre; stroke-width: 4px; fill: rgb(0, 0, 0);"/>
</svg>