<?xml version="1.0" encoding="utf-8"?>
<svg
  version="1" 
  height="75"
  width="350"
  id="AP_concept_design_logo"
  style=""
  viewBox="370 580 183 200" 
  xmlns="http://www.w3.org/2000/svg" 
  xmlns:bx="https://boxy-svg.com"
  >

  <path d="M 70.6 719.6 L 84.5 719.6 L 57.5 606.6 L 46 606.6 L 18.9 719.6 L 32.6 719.6 L 38.6 694.7 L 64.7 694.7 Z M 41.8 681.4 L 51.8 639.9 L 61.5 681.4 Z M 88.6 606.6 L 87.6 606.6 L 87.6 719.6 L 100.8 719.6 L 100.8 681.5 L 112.1 681.5 C 117 681.4 124.1 680.3 129.9 676.8 C 135.3 672.9 140.1 665.5 140.4 654.2 L 140.4 633.7 C 140.2 624.9 136.8 617.7 132 613.2 C 126.9 609.1 119.5 606.7 112.1 606.6 Z M 112.1 668.2 L 100.8 668.2 L 100.8 619.8 L 112.1 619.8 C 117 619.8 120.6 620.6 123.1 623.1 L 123.2 623.1 L 123.2 623.2 C 126.1 625.2 127.3 628.2 127.2 633.7 L 127.2 654.3 C 127.5 661.2 125.3 664.1 121.9 666 C 119 668.2 115.4 668.2 112.1 668.2 Z M 189.9 651.1 L 190 651.1 L 190 651 C 192 648.9 194.6 648.3 198.4 648.3 C 202 648.3 206.5 649.3 212.4 651.3 L 213.7 651.7 L 219 653.4 L 220.3 653.9 L 220.3 639.9 L 216.2 638.5 C 209.8 636.4 203.3 635.1 198.4 635.1 C 192 635.1 185.5 637.3 181 641.1 C 176.8 645.1 173.8 651.9 173.6 659.9 L 173.6 696.2 C 173.8 704.2 176.7 710.9 180.9 715 C 185.4 718.7 192 721.1 198.4 721.1 C 203.3 721.1 209.8 719.7 216.2 717.6 L 216.9 717.3 L 218.2 716.9 L 219.6 716.4 L 220.3 716.2 L 220.3 702.3 L 212.4 704.9 C 206.5 706.8 202 707.8 198.4 707.8 C 194.6 707.8 192.1 707.3 190.1 705.2 L 190.1 705.2 L 190.1 705.1 C 187.8 703.3 186.7 700.8 186.8 696.3 L 186.8 659.9 C 186.7 655.3 187.7 652.9 189.9 651.1 Z M 278.8 659.9 C 278.6 651.9 275.6 645.2 271.4 641.2 C 266.9 637.4 260.3 635.1 253.9 635.1 C 247.6 635.1 241.1 637.3 236.7 641.1 C 232.5 645.1 229.4 651.9 229.2 659.9 L 229.2 696.2 C 229.4 704.2 232.4 710.9 236.6 715 C 241 718.7 247.6 721.1 253.9 721.1 C 260.3 721.1 266.8 718.8 271.3 715.1 C 275.5 711 278.6 704.3 278.8 696.2 Z M 265.5 696.3 C 265.7 700.8 264.6 703.3 262.3 705.1 L 262.2 705.2 L 262.2 705.2 C 260.3 707.3 257.7 707.8 253.9 707.8 C 250.1 707.8 247.5 707.2 245.5 705.1 L 245.5 705.1 L 245.4 705 C 243.2 703.2 242.2 700.8 242.3 696.2 L 242.3 659.9 C 242.2 655.3 243.3 652.8 245.6 651 L 245.6 651 L 245.7 650.9 C 247.6 648.8 250.1 648.3 253.9 648.3 C 257.7 648.3 260.4 648.9 262.3 651 L 262.4 651.1 L 262.4 651.1 C 264.7 652.9 265.7 655.3 265.5 659.9 Z M 329.9 641.2 C 325.4 637.4 318.8 635.1 312.4 635.1 C 308.9 635.1 304 636.3 299.5 637.8 L 300.8 637.4 L 300.8 636.6 L 287.7 636.6 L 287.7 719.6 L 300.8 719.6 L 300.8 650 C 301 650 301.2 649.9 301.6 649.8 C 305.5 648.8 309 648.3 312.4 648.3 C 316.2 648.3 318.8 648.8 320.7 650.9 L 320.7 651 L 320.8 651 C 323.1 652.8 324.2 655.3 324 659.9 L 324 718.6 L 324 719.6 L 337.3 719.6 L 337.3 659.9 C 337.1 651.9 334.1 645.2 329.9 641.2 Z M 362.4 651.1 L 362.5 651.1 L 362.5 651 C 364.5 648.9 367.1 648.3 370.9 648.3 C 374.5 648.3 379 649.3 384.9 651.3 L 387.5 652.1 L 392.8 653.8 L 392.8 639.9 L 388.7 638.5 C 382.3 636.4 375.8 635.1 370.9 635.1 C 364.5 635.1 358 637.3 353.5 641.1 C 349.3 645.1 346.3 651.9 346.1 659.9 L 346.1 696.2 C 346.2 704.2 349.2 710.9 353.4 715 C 357.9 718.7 364.5 721.1 370.9 721.1 C 375.8 721.1 382.3 719.7 388.7 717.6 L 389.4 717.3 L 390.7 716.9 L 392.1 716.4 L 392.8 716.2 L 392.8 702.3 L 384.9 704.9 C 379 706.8 374.5 707.8 370.9 707.8 C 367.1 707.8 364.6 707.3 362.6 705.2 L 362.6 705.2 L 362.6 705.1 C 360.3 703.3 359.2 700.8 359.3 696.3 L 359.3 659.9 C 359.2 655.3 360.2 652.9 362.4 651.1 Z M 414.8 659.9 C 414.7 655.3 415.8 652.8 418.1 651 L 418.1 651 L 418.1 650.9 C 420.1 648.8 422.6 648.3 426.4 648.3 C 430.2 648.3 432.9 648.9 434.8 651 L 434.8 651.1 L 434.9 651.1 C 437.2 652.9 438.2 655.3 438 659.9 L 438 671.5 L 414.8 671.5 Z M 446.2 716.9 L 447.6 716.4 L 448.3 716.2 L 448.3 702.3 L 440.4 704.9 C 434.5 706.8 430 707.8 426.4 707.8 C 422.6 707.8 420.1 707.3 418.1 705.2 L 418.1 705.2 L 418.1 705.1 C 415.8 703.3 414.7 700.8 414.8 696.3 L 414.8 684.6 L 451.3 684.6 L 451.3 659.9 C 451.1 651.9 448.1 645.2 443.9 641.2 C 439.4 637.4 432.8 635.1 426.4 635.1 C 420.1 635.1 413.6 637.3 409.2 641.1 C 405 645.1 401.9 651.9 401.7 659.9 L 401.7 696.2 C 401.9 704.2 404.9 710.9 409.1 715 C 413.5 718.7 420.1 721.1 426.4 721.1 C 431.3 721.1 437.8 719.7 444.2 717.6 L 444.9 717.3 Z M 473.3 637 L 473.3 636.6 L 460.2 636.6 L 460.2 755.9 L 473.3 755.9 L 473.3 719.2 C 476.6 720.2 479.1 721.1 484.9 721.1 C 491.3 721.1 497.8 718.8 502.3 715.1 C 506.5 711 509.6 704.3 509.8 696.2 L 509.8 659.9 C 509.6 651.9 506.6 645.2 502.4 641.2 C 497.9 637.4 491.3 635.1 484.9 635.1 C 480.3 635.1 476.7 635.9 473.3 637 Z M 484.9 648.3 C 488.7 648.3 491.4 648.9 493.3 651 L 493.3 651.1 L 493.4 651.1 C 495.7 652.9 496.7 655.3 496.5 659.9 L 496.5 696.3 C 496.7 700.8 495.6 703.3 493.3 705.1 L 493.2 705.2 L 493.2 705.2 C 491.3 707.3 488.7 707.8 484.9 707.8 C 480.5 707.8 477.4 707.3 473.3 706.2 L 473.3 650 C 477.4 648.8 480.5 648.3 484.9 648.3 Z M 537.5 622 L 524.3 622 L 524.3 636.6 L 514.2 636.6 L 514.2 649.8 L 524.3 649.8 L 524.3 696.2 C 524.5 704.3 527.6 710.9 532 715 C 536.7 718.8 542.3 720.6 548 721 L 549 721.1 L 551.2 721.2 L 554.3 721.3 L 554.3 708.2 L 548.8 707.7 C 545.1 707.5 543.2 707.2 541.1 705.1 L 541.1 705 L 541 705 C 538.5 703.2 537.3 700.8 537.5 696.3 L 537.5 649.8 L 556.4 649.8 L 556.4 636.6 L 537.5 636.6 Z M 624.5 719.1 L 624.5 719.6 L 637.8 719.6 L 637.8 599.1 L 624.5 599.1 L 624.5 637 C 621.1 635.9 618.6 635.1 612.9 635.1 C 606.6 635.1 600.1 637.3 595.6 641.1 C 591.5 645.1 588.4 651.9 588.2 659.9 L 588.2 696.2 C 588.4 704.2 591.4 710.9 595.5 715 C 600 718.7 606.6 721.1 612.9 721.1 C 617.5 721.1 621 720.2 624.5 719.1 Z M 612.9 648.3 C 617.4 648.3 620.4 648.8 624.5 650 L 624.5 706.2 C 620.4 707.3 617.2 707.8 612.9 707.8 C 609.1 707.8 606.5 707.2 604.5 705.1 L 604.5 705 L 604.4 705 C 602.1 703.2 601.2 700.8 601.3 696.2 L 601.3 659.9 C 601.1 655.3 602.3 652.8 604.6 651 L 604.6 651 L 604.6 650.9 C 606.6 648.8 609.1 648.3 612.9 648.3 Z M 659.8 659.9 C 659.6 655.3 660.8 652.8 663.1 651 L 663.1 651 L 663.1 650.9 C 665.1 648.8 667.6 648.3 671.4 648.3 C 675.2 648.3 677.9 648.9 679.8 651 L 679.8 651.1 L 679.9 651.1 C 682.2 652.9 683.2 655.3 683 659.9 L 683 671.5 L 659.8 671.5 Z M 691.2 716.9 L 692.6 716.4 L 693.3 716.2 L 693.3 702.3 L 685.4 704.9 C 679.5 706.8 675 707.8 671.4 707.8 C 667.6 707.8 665.1 707.3 663.1 705.2 L 663.1 705.2 L 663.1 705.1 C 660.8 703.3 659.6 700.8 659.8 696.3 L 659.8 684.6 L 696.3 684.6 L 696.3 659.9 C 696.1 651.9 693.1 645.2 688.9 641.2 C 684.4 637.4 677.8 635.1 671.4 635.1 C 665.1 635.1 658.6 637.3 654.1 641.1 C 650 645.1 646.9 651.9 646.7 659.9 L 646.7 696.2 C 646.9 704.2 649.9 710.9 654 715 C 658.5 718.7 665.1 721.1 671.4 721.1 C 676.3 721.1 682.8 719.7 689.2 717.6 L 689.9 717.3 Z M 738.3 705 L 738.3 705 L 738.3 705.1 C 736.3 707.2 733.7 707.8 729.9 707.8 C 724.2 707.8 719.7 706.8 713.7 704.8 L 708.4 703.2 L 707.1 702.7 L 705.8 702.3 L 705.8 716.2 L 709.9 717.6 C 716.4 719.7 722.9 721.1 729.9 721.1 C 736.3 721.1 742.8 718.9 747.3 715 C 751.5 710.9 754.8 704.1 754.8 695.8 C 754.8 686.1 750.6 679.7 746 676.3 C 741.1 673.2 734.9 671.9 730.4 671.5 C 727.2 671.2 724.3 671.1 722.1 669.3 L 722.1 669.2 L 722 669.2 C 719.5 667.8 718.3 665.7 718.3 660.4 C 718.3 655.5 719.2 652.9 721.5 651.1 L 721.5 651.1 L 721.6 651.1 C 723.5 648.9 726.1 648.3 729.9 648.3 C 733.5 648.3 738 649.3 743.9 651.3 L 746.5 652.1 L 751.8 653.8 L 751.8 639.9 L 747.7 638.5 C 741.3 636.4 734.8 635.1 729.9 635.1 C 723.6 635.1 717.1 637.3 712.6 641.1 C 708.5 645.2 705.2 652 705.2 660.4 C 705.2 670 709.3 676.4 713.9 679.9 C 718.7 683 724.9 684.2 729.4 684.6 C 732.6 684.9 735.5 685.1 737.7 686.9 L 737.7 686.9 L 737.8 686.9 C 740.3 688.4 741.5 690.4 741.5 695.8 C 741.5 700.6 740.6 703.2 738.3 705 Z M 763.4 719.6 L 776.7 719.6 L 776.7 636.6 L 763.4 636.6 Z M 763.4 632.4 L 776.7 632.4 L 776.7 606.6 L 763.4 606.6 Z M 817.4 741.7 C 815.5 743.6 813 744.1 809.4 744.1 C 803.7 744.1 799.2 743.1 793.2 741.1 L 787.9 739.5 L 786.6 739 L 785.3 738.6 L 785.3 752.7 L 789.5 754 C 796 756.1 802.4 757.4 809.4 757.4 C 815.8 757.4 822.3 755.1 826.8 751.4 C 831 747.3 834.1 740.6 834.3 732.5 L 834.3 637.6 L 834.3 636.6 L 821 636.6 L 821 637 C 817.5 635.9 814 635.1 809.4 635.1 C 803.1 635.1 796.6 637.3 792.1 641.1 C 788 645.1 784.9 651.9 784.7 659.9 L 784.7 696.2 C 784.9 704.2 787.9 710.9 792 715 C 796.5 718.7 803.1 721.1 809.4 721.1 C 815.1 721.1 817.6 720.2 821 719.1 L 821 732.5 C 821.2 737.1 820.2 739.5 817.9 741.3 Z M 809.4 648.3 C 813.9 648.3 816.9 648.8 821 650 L 821 706.2 C 816.9 707.3 813.7 707.8 809.4 707.8 C 805.6 707.8 803 707.2 801 705.1 L 801 705.1 L 800.9 705 C 798.6 703.2 797.7 700.8 797.8 696.2 L 797.8 659.9 C 797.6 655.3 798.7 652.8 801 651 L 801.1 651 L 801.1 650.9 C 803 648.8 805.6 648.3 809.4 648.3 Z M 885.4 641.2 C 880.9 637.4 874.3 635.1 867.9 635.1 C 864.3 635.1 859.5 636.3 855 637.8 L 856.3 637.4 L 856.3 636.6 L 843.2 636.6 L 843.2 719.6 L 856.3 719.6 L 856.3 650 C 856.5 650 856.7 649.9 857.1 649.8 C 861 648.8 864.5 648.3 867.9 648.3 C 871.7 648.3 874.3 648.8 876.2 650.9 L 876.2 651 L 876.3 651 C 878.6 652.8 879.7 655.3 879.5 659.9 L 879.5 718.6 L 879.5 719.6 L 892.8 719.6 L 892.8 659.9 C 892.6 651.9 889.6 645.2 885.4 641.2 Z" transform="matrix(1,0,0,1,0,0)" style="fill: rgb(0, 0, 0); stroke-width: 4px; paint-order: fill; white-space: pre"/>
</svg>