<svg width="24" height="25" viewBox="0 0 24 25" fill="none" xmlns="http://www.w3.org/2000/svg">
<rect x="0.5" y="1.42896" width="23" height="23" stroke="#0F0806"/>
<path d="M4.5 18.1989C4.358 18.1989 4.23933 18.1506 4.144 18.0539C4.048 17.9579 4 17.8396 4 17.6989C4 17.5569 4.048 17.4382 4.144 17.3429C4.23933 17.2469 4.358 17.1989 4.5 17.1989H19.5C19.642 17.1989 19.7607 17.2469 19.856 17.3429C19.9513 17.4389 19.9993 17.5579 20 17.6999C20 17.8419 19.952 17.9606 19.856 18.0559C19.76 18.1512 19.6413 18.1989 19.5 18.1989H4.5ZM4.5 13.4289C4.358 13.4289 4.23933 13.3809 4.144 13.2849C4.048 13.1889 4 13.0702 4 12.9289C4 12.7876 4.048 12.6689 4.144 12.5729C4.24 12.4776 4.35867 12.4299 4.5 12.4299H19.5C19.642 12.4299 19.7607 12.4779 19.856 12.5739C19.952 12.6699 20 12.7889 20 12.9309C20 13.0729 19.952 13.1916 19.856 13.2869C19.7607 13.3822 19.642 13.4299 19.5 13.4299L4.5 13.4289ZM4.5 8.65891C4.358 8.65891 4.23933 8.61125 4.144 8.51591C4.04867 8.42058 4.00067 8.30158 4 8.15891C4 8.01691 4.048 7.89825 4.144 7.80291C4.23933 7.70758 4.358 7.65991 4.5 7.65991H19.5C19.642 7.65991 19.7607 7.70791 19.856 7.80391C19.952 7.89991 20 8.01858 20 8.15991C20 8.30191 19.952 8.42091 19.856 8.51691C19.76 8.61225 19.6413 8.65991 19.5 8.65991L4.5 8.65891Z" fill="#0F0806"/>
</svg>
