<svg width="48" height="48" viewBox="0 0 48 48" fill="none" xmlns="http://www.w3.org/2000/svg">
<path fill-rule="evenodd" clip-rule="evenodd" d="M24 4.5C13.23 4.5 4.5 13.23 4.5 24C4.5 34.77 13.23 43.5 24 43.5C34.77 43.5 43.5 34.77 43.5 24C43.5 13.23 34.77 4.5 24 4.5ZM7.5 24C7.5011 20.5237 8.60013 17.1365 10.6403 14.3218C12.6804 11.5071 15.5575 9.40871 18.8608 8.32597C22.1642 7.24322 25.7252 7.23148 29.0357 8.29243C32.3461 9.35337 35.2369 11.4328 37.2956 14.234C39.3542 17.0352 40.4756 20.415 40.4996 23.8912C40.5236 27.3674 39.4491 30.7625 37.4293 33.5918C35.4096 36.4212 32.5478 38.5404 29.2523 39.6469C25.9568 40.7535 22.396 40.791 19.078 39.754C19.9233 38.4263 20.5954 36.9961 21.078 35.498L22.11 31.544C22.5368 32.1532 23.1091 32.6461 23.7748 32.978C24.4405 33.3098 25.1786 33.47 25.922 33.444C30.992 33.444 34.556 28.836 34.556 23.112C34.556 17.614 30.066 13.506 24.308 13.506C17.134 13.506 13.324 18.326 13.324 23.564C13.324 26.01 14.618 29.038 16.696 30.012C17.004 30.154 17.206 30.012 17.254 29.786C17.302 29.56 17.586 28.422 17.716 27.898C17.7361 27.8153 17.7359 27.729 17.7154 27.6465C17.6948 27.5639 17.6545 27.4876 17.598 27.424C16.8127 26.3181 16.397 24.9923 16.41 23.636C16.4058 22.6623 16.5993 21.6979 16.9788 20.8012C17.3582 19.9045 17.9156 19.0941 18.6174 18.4191C19.3191 17.7441 20.1505 17.2186 21.0613 16.8743C21.9721 16.5299 22.9432 16.374 23.916 16.416C24.827 16.3627 25.739 16.4999 26.594 16.8188C27.449 17.1377 28.2281 17.6312 28.8817 18.2681C29.5352 18.9049 30.0489 19.6709 30.3899 20.5174C30.7308 21.3638 30.8916 22.272 30.862 23.184C30.862 27.672 28.582 30.796 25.638 30.796C25.2577 30.825 24.8759 30.7619 24.5251 30.6122C24.1742 30.4625 23.8646 30.2305 23.6223 29.9359C23.3801 29.6412 23.2123 29.2926 23.1332 28.9195C23.0542 28.5463 23.0661 28.1596 23.168 27.792C23.336 27.092 23.56 26.37 23.776 25.666C24.17 24.39 24.546 23.176 24.546 22.258C24.5869 21.9596 24.5629 21.6558 24.4756 21.3676C24.3883 21.0793 24.2398 20.8132 24.0402 20.5876C23.8407 20.362 23.5947 20.1822 23.3192 20.0604C23.0437 19.9386 22.7452 19.8778 22.444 19.882C20.78 19.882 19.438 21.616 19.438 23.92C19.426 24.734 19.578 25.542 19.89 26.296L17.93 34.608C17.6904 36.1789 17.6904 37.7771 17.93 39.348C16.6383 38.8361 15.4166 38.1628 14.294 37.344C11.5382 35.3314 9.46852 32.5195 8.366 29.29C7.79057 27.5857 7.49803 25.7988 7.5 24Z" fill="#0F0806"/>
</svg>
